<?xml version="1.0" encoding="UTF-8"?>
<!-- Generated by jsxcad -->
<!DOCTYPE svg PUBLIC "-//W3C//DTD SVG 1.1 Tiny//EN" "http://www.w3.org/Graphics/SVG/1.1/DTD/svg11-tiny.dtd">
<svg viewBox="-250 -250 500 500" width="500" height="500" xmlns="http://www.w3.org/2000/svg"><path d="M-17.35679716204362,-109.83198132159316L-13.827886379899581,-7.70958720121323L-12.59398993073424,-99.92305633601181zM-16.031993965669784,-110.29465561243737L-12.377290220277452,-8.818234516233085L-11.279468933468687,-100.379413377827zM-19.822292042695192,-108.97093463431304L-16.536806886397628,-5.34496032873648L-15.04036231679036,-99.07376108334806zM-14.6526024945246,-110.77639061186036L-10.86978411284631,-9.872307829754858L-9.910789749363019,-100.85456898984003zM-20.953744284202607,-108.56160046161992L-17.78488744833884,-4.097627139129426L-16.16297399049383,-98.66978877963021zM-22.01229849525496,-108.14658451729986L-18.955598229516422,-2.8129881857736794L-17.21309257470147,-98.25972289351097zM-11.751730645506877,-111.78948887765281L-7.7067037681976425,-11.801521054230145L-7.032462867653184,-101.85382392355248zM-22.993103977070568,-107.76205467093108L-20.044419546619604,-1.4957633761304698L-18.18608671627588,-97.87977852903117zM-25.432564741640185,-106.80565924580802L-22.778453989390115,2.6022877300723626L-20.606125420670708,-96.934784443671zM-26.06755412907153,-106.55671254162445L-23.500115627130928,4.000170097295933L-21.236060213688944,-96.68880465213928zM-26.609066246029094,-106.34440649416878L-24.121631993817324,5.405301759049338L-21.7732662210868,-96.47902854574544zM-20.477346365716624,-16.553068062197504L-13.84924411676625,-99.48727386663785L-18.62186623730071,-109.39016825870002zM-14.509301211406056,-20.89918567023557L-8.493279654761288,-101.34667268686495L-13.223992444057737,-111.27531063731524zM-11.229554022516204,-22.716702026124953L-5.5343599497641325,-102.32003585483334L-10.242156853301053,-112.26301739691705zM-26.381725293353266,-10.125603726091802L-19.078176771435484,-97.53143010285993L-23.892356375843153,-107.40950275792612zM-9.536578038768026,-23.524304078625068L-4.004385331231201,-102.78573061257228L-8.700510226418082,-112.73621064092355zM-27.307732955683615,-8.753563122069643L-19.885901361539783,-97.21602830024261L-24.706561931101323,-107.09029571850981zM-7.816492807385951,-24.260395264510358L-2.4484410391813785,-103.25932563857711L-7.13268723523911,-113.21743314717249zM-6.075641800815641,-24.922221231031955L-0.8726211346186318,-103.73897150545545L-5.544826888739955,-113.70480580602133zM-4.320448505619922,-25.507287532140854L0.7168896894610387,-104.22277965666841L-3.9431609422406164,-114.19641308412474zM-2.5573968690737,-26.013353033777573L2.313839950294075,-104.70885725269373L-2.333988858455711,-114.69032831796076zM-30.036268224790753,-3.1454061073360386L-22.215661038502088,-96.3062800277397L-27.05500883441773,-106.16957480626915zM-0.7930117057630955,-26.43844883880378L3.912218844933876,-105.12736935272285L-0.723706000830683,-115.11682628458296zM-30.46007866424348,-1.7397854824796382L-22.561531434824175,-96.17121620547907L-27.403655239615492,-106.03288247728231zM0.9661596581381741,-26.780883351156156L5.505660106705508,-105.54459500249062L0.8816142606824584,-115.54200590616246zM-30.77603147737357,-0.3434524375983598L-22.80954357547553,-96.07437618413829L-27.653655869907865,-105.93487472842193zM-30.982523045459256,1.0382063724996382L-22.958736579685702,-96.01611693714324L-27.804042444364914,-105.87591310508299zM2.7135678781216814,-27.039242791548524L7.087852352601111,-105.95886303518907L2.475613757007936,-115.96419561154558zM11.455000442037957,-118.14989972229736L17.57040933604644,-16.615632284542748L16.001440807379055,-108.09954627436386zM4.442680659593033,-27.21240662155237L8.652512844936078,-106.36854838274184L4.051962565494981,-116.3817076925057zM12.798392925040831,-118.44912184353498L19.047340553322726,-16.26325778943039L17.335088991769023,-108.39196725758494zM6.147002973667139,-27.299549575876494L10.193413742689858,-106.77202376792286L5.60438462142806,-116.79288366091623zM14.08286779700571,-118.73521308315347L20.463287614977325,-15.82663743802853L18.610239099971803,-108.67155368931716zM7.820099155417915,-27.300144768430407L11.704532266946044,-107.1574083907874L7.126763396768796,-117.18586421179769zM15.303207829276545,-119.00701949598762L21.812643861389432,-15.307152067470348L19.821710447477134,-108.93717830996792zM9.45561092573213,-27.21396705051985L13.180467786590615,-107.48102559092513L8.613448988649964,-117.51700052296903zM11.047280926007675,-27.04110622288474L14.61469786725752,-107.79549581048543L10.058136335936874,-117.83877980825984zM17.533009792267514,-119.44356234464605L24.290219443629496,-14.02668946199543L22.035575095836332,-109.36229753364806zM18.13873687811847,-24.90157560638472L20.964891953963903,-109.1734661583588L16.454697501421215,-119.24917147985353zM22.228836150221664,-120.29007085605727L29.616089793915346,-8.437067564397255L26.69808572182416,-110.18458128215568zM20.46684981766078,-23.477293878899832L23.028622553636968,-109.53742751958212L18.53314222869443,-119.6238497591195zM21.501729287111548,-22.6518877183188L23.939949034705684,-109.69815267564991L19.450973647827414,-119.78930892237545zM22.444566047212206,-21.754749399113106L24.765788883023465,-109.84379377403995L20.282715284969967,-119.93924069656472zM23.29130760150139,-20.789092820776L25.502729501787353,-109.97375980639633L21.024924819758663,-120.07303629359565zM24.038247553519152,-19.758422080814768L26.147721506917676,-110.08751407506921L21.674529877015402,-120.19014278052997zM25.219704929066076,-17.517459070019985L27.151540504346215,-110.26455288768186L22.68553816490699,-120.37239976080312z" style="fill:rgb(247,158,158)"/><path d="M-55.94462861710488,-92.5191594263193L161.78315057930743,-69.39712428846472L-47.329167280189424,-97.05678470614826zM-47.329167280189424,-97.05678470614826L161.78315057930743,-69.39712428846472L-38.55496247982477,-101.27225301772933z" style="fill:rgb(83,212,212)"/><path d="M25.648677407342397,-16.31554937143454L27.50620015105247,-110.32709301864729L23.042735817713655,-120.4367837592414z" style="fill:rgb(247,158,158)"/><path d="M-64.37860535854335,-87.67122785063121L161.78315057930743,-69.39712428846472L-55.94462861710488,-92.5191594263193zM-38.55496247982477,-101.27225301772933L161.78315057930743,-69.39712428846472L-29.644958991490558,-105.15417299457042zM-72.60856759561572,-82.52526651398519L161.78315057930743,-69.39712428846472L-64.37860535854335,-87.67122785063121z" style="fill:rgb(83,212,212)"/><path d="M25.966804242588335,-15.065364689829922L27.760588475379787,-110.37196451265565L23.29894700644213,-120.48297791286151z" style="fill:rgb(247,158,158)"/><path d="M-29.644958991490558,-105.15417299457042L161.78315057930743,-69.39712428846472L-20.62237949506127,-108.69151602514697z" style="fill:rgb(83,212,212)"/><path d="M26.172357694571023,-13.77170674411718L27.913644858644894,-110.3989536780857L23.4531029354301,-120.51076290131216z" style="fill:rgb(247,158,158)"/><path d="M-80.6121212532173,-77.09399613009776L161.78315057930743,-69.39712428846472L-72.60856759561572,-82.52526651398519zM-20.62237949506127,-108.69151602514697L161.78315057930743,-69.39712428846472L-11.51075904955298,-111.87363765465867zM-88.36700820844047,-71.39065883788224L161.78315057930743,-69.39712428846472L-80.6121212532173,-77.09399613009776zM-11.51075904955298,-111.87363765465867L161.78315057930743,-69.39712428846472L-2.333988858455711,-114.69032831796076zM-95.8510423074686,-65.42902863691589L161.78315057930743,-69.39712428846472L-88.36700820844047,-71.39065883788224zM-2.333988858455711,-114.69032831796076L161.78315057930743,-69.39712428846472L6.883638222479964,-117.13171136480909zM-103.04213111758021,-59.22344859412691L161.78315057930743,-69.39712428846472L-95.8510423074686,-65.42902863691589zM6.883638222479964,-117.13171136480909L161.78315057930743,-69.39712428846472L16.117381417310963,-119.18836367908938zM-109.91825802521024,-52.78889005291921L161.78315057930743,-69.39712428846472L-103.04213111758021,-59.22344859412691zM16.117381417310963,-119.18836367908938L161.78315057930743,-69.39712428846472L25.342010304971275,-120.85127518662642zM-116.45745709646086,-46.14100466716232L161.78315057930743,-69.39712428846472L-109.91825802521024,-52.78889005291921zM25.342010304971275,-120.85127518662642L161.78315057930743,-69.39712428846472L34.5317675548289,-122.11188168710325zM-122.63782809388778,-39.29615771919608L161.78315057930743,-69.39712428846472L-116.45745709646086,-46.14100466716232z" style="fill:rgb(83,212,212)"/><path d="M-8.493279654761288,-101.34667268686495L-14.509301211406056,-20.89918567023557L-9.310991551628145,-10.86795284935198zM-5.5343599497641325,-102.32003585483334L-11.229554022516204,-22.716702026124953L-6.0628640408762795,-12.669582801666479zM-4.004385331231201,-102.78573061257228L-9.536578038768026,-23.524304078625068L-4.385550257775862,-13.468932299612096zM-2.4484410391813785,-103.25932563857711L-7.816492807385951,-24.260395264510358L-2.68095486469591,-14.196605381073885z" style="fill:rgb(247,158,158)"/><path d="M34.5317675548289,-122.11188168710325L161.78315057930743,-69.39712428846472L43.66033111744337,-122.96213217361051z" style="fill:rgb(83,212,212)"/><path d="M-13.84924411676625,-99.48727386663785L-20.477346365716624,-16.553068062197504L-15.216135554891567,-6.550417028786319zM-0.8726211346186318,-103.73897150545545L-6.075641800815641,-24.922221231031955L-0.955369520173702,-14.849877375637693zM0.7168896894610387,-104.22277965666841L-4.320448505619922,-25.507287532140854L0.7848347297521815,-15.426280013116598zM2.313839950294075,-104.70885725269373L-2.5573968690737,-26.013353033777573L2.5332260428036504,-15.92360776757092z" style="fill:rgb(247,158,158)"/><path d="M-128.4375686798493,-32.27148925328877L161.78315057930743,-69.39712428846472L-122.63782809388778,-39.29615771919608z" style="fill:rgb(83,212,212)"/><path d="M3.912218844933876,-105.12736935272285L-0.7930117057630955,-26.43844883880378L4.283329831519238,-16.339922359442184zM5.505660106705508,-105.54459500249062L0.9661596581381741,-26.780883351156156L6.028648856877919,-16.673564908499547zM-19.078176771435484,-97.53143010285993L-26.381725293353266,-10.125603726091802L-21.047097729655917,-0.15080744360033796zM-7.7067037681976425,-11.801521054230145L-11.751730645506877,-111.78948887765281L-12.889172028322683,-21.84058617172226zM-10.86978411284631,-9.872307829754858L-14.6526024945246,-110.77639061186036L-16.0839441995846,-19.89595746041686zM-12.377290220277452,-8.818234516233085L-16.031993965669784,-110.29465561243737L-17.607254592700922,-18.83457696606213zM7.087852352601111,-105.95886303518907L2.7135678781216814,-27.039242791548524L7.762681745133227,-16.923154836921675zM-13.827886379899581,-7.70958720121323L-17.35679716204362,-109.83198132159316L-19.07355215041515,-17.718922175887194zM-19.885901361539783,-97.21602830024261L-27.307732955683615,-8.753563122069643L-21.95966562502871,1.2169038831846652z" style="fill:rgb(247,158,158)"/><path d="M43.66033111744337,-122.96213217361051L161.78315057930743,-69.39712428846472L52.70078440537703,-123.39450741889617z" style="fill:rgb(83,212,212)"/><path d="M-16.536806886397628,-5.34496032873648L-19.822292042695192,-108.97093463431304L-21.813348069727105,-15.341271535618764zM8.652512844936078,-106.36854838274184L4.442680659593033,-27.21240662155237L9.478943531460601,-17.087606776360428zM-17.78488744833884,-4.097627139129426L-20.953744284202607,-108.56160046161992L-23.076488924347046,-14.087963739992814zM10.193413742689858,-106.77202376792286L6.147002973667139,-27.299549575876494L11.170986496179733,-17.16612666932148zM-18.955598229516422,-2.8129881857736794L-22.01229849525496,-108.14658451729986L-24.261939134042798,-12.797735506596593z" style="fill:rgb(247,158,158)"/><path d="M-133.8349872560702,-25.084968160305763L161.78315057930743,-69.39712428846472L-128.4375686798493,-32.27148925328877z" style="fill:rgb(83,212,212)"/><path d="M-20.044419546619604,-1.4957633761304698L-22.993103977070568,-107.76205467093108L-25.365118611201556,-11.475325518150806zM11.704532266946044,-107.1574083907874L7.820099155417915,-27.300144768430407L12.832417009925797,-17.158221759738886zM13.180467786590615,-107.48102559092513L9.45561092573213,-27.21396705051985L14.456921261612868,-17.063704161261647zM-22.215661038502088,-96.3062800277397L-30.036268224790753,-3.1454061073360386L-24.640326434891808,6.812373267490611z" style="fill:rgb(247,158,158)"/><path d="M52.70078440537703,-123.39450741889617L161.78315057930743,-69.39712428846472L61.62560214092666,-123.40212869869453z" style="fill:rgb(83,212,212)"/><path d="M-22.778453989390115,2.6022877300723626L-25.432564741640185,-106.80565924580802L-28.13942423190283,-7.364300502348999zM14.61469786725752,-107.79549581048543L11.047280926007675,-27.04110622288474L16.038283949529294,-16.88269644444848zM-22.561531434824175,-96.17121620547907L-30.46007866424348,-1.7397854824796382L-25.053882880547494,8.216033804044802zM-23.500115627130928,4.000170097295933L-26.06755412907153,-106.55671254162445L-28.873400646951815,-5.963002732834255zM-22.80954357547553,-96.07437618413829L-30.77603147737357,-0.3434524375983598L-25.360363922747073,9.610909784089799z" style="fill:rgb(247,158,158)"/><path d="M-138.8085524002217,-17.755446118393117L161.78315057930743,-69.39712428846472L-133.8349872560702,-25.084968160305763z" style="fill:rgb(83,212,212)"/><path d="M-24.121631993817324,5.405301759049338L-26.609066246029094,-106.34440649416878L-29.50658795372683,-4.5549318623234685zM-22.958736579685702,-96.01611693714324L-30.982523045459256,1.0382063724996382L-25.558208525625354,10.991620137985716z" style="fill:rgb(247,158,158)"/><path d="M61.62560214092666,-123.40212869869453L161.78315057930743,-69.39712428846472L70.40661652614187,-122.9787367295585z" style="fill:rgb(83,212,212)"/><path d="M17.57040933604644,-16.615632284542748L11.455000442037957,-118.14989972229736L12.588973888255227,-26.781960531069206zM19.047340553322726,-16.26325778943039L12.798392925040831,-118.44912184353498L14.074696712259056,-26.437248169406132zM20.964891953963903,-109.1734661583588L18.13873687811847,-24.90157560638472L23.090010482474227,-14.706499920076054z" style="fill:rgb(247,158,158)"/><path d="M-143.33693876108975,-10.30270044320731L161.78315057930743,-69.39712428846472L-138.8085524002217,-17.755446118393117zM-6.075641800815641,-24.922221231031955L-154.55887379073937,14.152196248143706L-154.6011072463547,14.28060352618827zM-7.816492807385951,-24.260395264510358L-154.6011072463547,14.28060352618827L-154.67132179372686,14.49411553096203zM-4.320448505619922,-25.507287532140854L-154.54477889418143,14.109343503487478L-154.55887379073937,14.152196248143706zM-9.536578038768026,-23.524304078625068L-154.67132179372686,14.49411553096203L-154.7692838952048,14.79197959944181zM-11.229554022516204,-22.716702026124953L-154.7692838952048,14.79197959944181L-154.89463781007788,15.173150693775943z" style="fill:rgb(83,212,212)"/><path d="M20.463287614977325,-15.82663743802853L14.08286779700571,-118.73521308315347L15.498621709781837,-26.00799335724847z" style="fill:rgb(247,158,158)"/><path d="M-12.889172028322683,-21.84058617172226L-154.89463781007788,15.173150693775943L-155.04694266032092,15.636282622995028zM-14.509301211406056,-20.89918567023557L-155.04694266032092,15.636282622995028L-155.2256783736967,16.17973975856446zM-16.0839441995846,-19.89595746041686L-155.2256783736967,16.17973975856446L-155.43018342552114,16.80159530595563z" style="fill:rgb(83,212,212)"/><path d="M21.812643861389432,-15.307152067470348L15.303207829276545,-119.00701949598762L16.855111700294426,-25.49554739828905z" style="fill:rgb(247,158,158)"/><path d="M70.40661652614187,-122.9787367295585L161.78315057930743,-69.39712428846472L79.01503307759616,-122.11886435462753z" style="fill:rgb(83,212,212)"/><path d="M23.028622553636968,-109.53742751958212L20.46684981766078,-23.477293878899832L25.408350310079847,-13.270048003562549z" style="fill:rgb(247,158,158)"/><path d="M-17.607254592700922,-18.83457696606213L-155.43018342552114,16.80159530595563L-155.65975247338582,17.49963957979273zM-19.07355215041515,-17.718922175887194L-155.65975247338582,17.49963957979273L-155.9135468308828,18.271382289597916z" style="fill:rgb(83,212,212)"/><path d="M23.939949034705684,-109.69815267564991L21.501729287111548,-22.6518877183188L26.439764016767462,-12.439210414117918z" style="fill:rgb(247,158,158)"/><path d="M-20.477346365716624,-16.553068062197504L-155.9135468308828,18.271382289597916L-156.190683370624,19.11405880888907zM-147.39911189134602,-2.7474850260659736L161.78315057930743,-69.39712428846472L-143.33693876108975,-10.30270044320731z" style="fill:rgb(83,212,212)"/><path d="M24.290219443629496,-14.02668946199543L17.533009792267514,-119.44356234464605L19.34429641166569,-24.228058867416937z" style="fill:rgb(247,158,158)"/><path d="M-21.813348069727105,-15.341271535618764L-156.190683370624,19.11405880888907L-156.49014711902907,20.024638902918113z" style="fill:rgb(83,212,212)"/><path d="M24.765788883023465,-109.84379377403995L22.444566047212206,-21.754749399113106L27.38010597482084,-11.537112609000857z" style="fill:rgb(247,158,158)"/><path d="M-156.58396724558767,20.309919333190027L-23.076488924347046,-14.087963739992814L-156.49014711902907,20.024638902918113zM-23.076488924347046,-14.087963739992814L-156.58396724558767,20.309919333190027L-156.7583853497905,20.98606586901846z" style="fill:rgb(83,212,212)"/><path d="M25.502729501787353,-109.97375980639633L23.29130760150139,-20.789092820776L28.225344807115686,-10.566991441393862z" style="fill:rgb(247,158,158)"/><path d="M-24.261939134042798,-12.797735506596593L-156.7583853497905,20.98606586901846L-157.02037740368482,22.001686710945936zM79.01503307759616,-122.11886435462753L161.78315057930743,-69.39712428846472L87.42143417849044,-120.81787570940466z" style="fill:rgb(83,212,212)"/><path d="M26.147721506917676,-110.08751407506921L24.038247553519152,-19.758422080814768L28.971787532548152,-9.532374179907436z" style="fill:rgb(247,158,158)"/><path d="M-25.365118611201556,-11.475325518150806L-157.02037740368482,22.001686710945936L-157.29685468815595,23.073497995204z" style="fill:rgb(83,212,212)"/><path d="M-27.8542378270433,-105.85623762052276L-28.967062368791392,148.76159543147182L-23.008530183130958,-95.9966758872318z" style="fill:rgb(247,158,158)"/><path d="M-26.381725293353266,-10.125603726091802L-157.29685468815595,23.073497995204L-157.5868240457824,24.197571649774986zM-150.97438898843967,4.888425327766372L161.78315057930743,-69.39712428846472L-147.39911189134602,-2.7474850260659736z" style="fill:rgb(83,212,212)"/><path d="M27.151540504346215,-110.26455288768186L25.219704929066076,-17.517459070019985L30.155292846052596,-7.285150694607042z" style="fill:rgb(247,158,158)"/><path d="M-27.307732955683615,-8.753563122069643L-157.5868240457824,24.197571649774986L-157.8892012914015,25.36976705315169z" style="fill:rgb(83,212,212)"/><path d="M27.50620015105247,-110.32709301864729L25.648677407342397,-16.31554937143454L30.58682646778271,-6.080961500154795z" style="fill:rgb(247,158,158)"/><path d="M-28.13942423190283,-7.364300502348999L-157.8892012914015,25.36976705315169L-158.20287217496474,26.585729125579416zM87.42143417849044,-120.81787570940466L161.78315057930743,-69.39712428846472L95.59578523336162,-119.07205647887122z" style="fill:rgb(83,212,212)"/><path d="M29.616089793915346,-8.437067564397255L22.228836150221664,-120.29007085605727L24.68203742003967,-18.666523582831925zM27.760588475379787,-110.37196451265565L25.966804242588335,-15.065364689829922L30.90853264993195,-4.829082170779488z" style="fill:rgb(247,158,158)"/><path d="M-28.873400646951815,-5.963002732834255L-158.20287217496474,26.585729125579416L-158.52665901787447,27.840916343260282z" style="fill:rgb(83,212,212)"/><path d="M27.913644858644894,-110.3989536780857L26.172357694571023,-13.77170674411718L31.11867805582083,-3.5343266742519z" style="fill:rgb(247,158,158)"/><path d="M-158.57971057475442,28.046559173361455L-29.50658795372683,-4.5549318623234685L-158.52665901787447,27.840916343260282zM-29.50658795372683,-4.5549318623234685L-158.57971057475442,28.046559173361455L-158.77683202400445,29.109125028596914zM-154.04254903504727,12.582199573439521L161.78315057930743,-69.39712428846472L-150.97438898843967,4.888425327766372zM-30.036268224790753,-3.1454061073360386L-158.77683202400445,29.109125028596914L-159.01673669758893,30.402353921890445zM-154.67132179372686,14.49411553096203L-9.536578038768026,-23.524304078625068L-7.816492807385951,-24.260395264510358zM-154.7692838952048,14.79197959944181L-11.229554022516204,-22.716702026124953L-9.536578038768026,-23.524304078625068zM-154.6011072463547,14.28060352618827L-7.816492807385951,-24.260395264510358L-6.075641800815641,-24.922221231031955zM-154.89463781007788,15.173150693775943L-12.889172028322683,-21.84058617172226L-11.229554022516204,-22.716702026124953zM-154.55887379073937,14.152196248143706L-6.075641800815641,-24.922221231031955L-4.320448505619922,-25.507287532140854zM-155.04694266032092,15.636282622995028L-14.509301211406056,-20.89918567023557L-12.889172028322683,-21.84058617172226zM-154.54477889418143,14.109343503487478L-4.320448505619922,-25.507287532140854L-2.5573968690737,-26.013353033777573zM-155.2256783736967,16.17973975856446L-16.0839441995846,-19.89595746041686L-14.509301211406056,-20.89918567023557zM95.59578523336162,-119.07205647887122L161.78315057930743,-69.39712428846472L103.50749380819673,-116.87875382545818zM-155.43018342552114,16.80159530595563L-17.607254592700922,-18.83457696606213L-16.0839441995846,-19.89595746041686zM-30.46007866424348,-1.7397854824796382L-159.01673669758893,30.402353921890445L-159.26112711076576,31.719761067559244zM161.78315057930743,-69.39712428846472L-154.04254903504727,12.582199573439521L-154.54477889418143,14.109343503487478zM-155.65975247338582,17.49963957979273L-19.07355215041515,-17.718922175887194L-17.607254592700922,-18.83457696606213zM-155.9135468308828,18.271382289597916L-20.477346365716624,-16.553068062197504L-19.07355215041515,-17.718922175887194zM-30.77603147737357,-0.3434524375983598L-159.26112711076576,31.719761067559244L-159.50906248463284,33.056295539661605zM-156.190683370624,19.11405880888907L-21.813348069727105,-15.341271535618764L-20.477346365716624,-16.553068062197504zM-156.49014711902907,20.024638902918113L-23.076488924347046,-14.087963739992814L-21.813348069727105,-15.341271535618764zM-30.982523045459256,1.0382063724996382L-159.50906248463284,33.056295539661605L-159.7595948432475,34.40678641608591zM-156.7583853497905,20.98606586901846L-24.261939134042798,-12.797735506596593L-23.076488924347046,-14.087963739992814zM-157.02037740368482,22.001686710945936L-25.365118611201556,-11.475325518150806L-24.261939134042798,-12.797735506596593zM-31.078355660628073,2.3998194803875426L-159.7595948432475,34.40678641608591L-160.0117397852532,35.765980455169256zM103.50749380819673,-116.87875382545818L161.78315057930743,-69.39712428846472L111.1254290069286,-114.23646480316752zM-157.29685468815595,23.073497995204L-26.381725293353266,-10.125603726091802L-25.365118611201556,-11.475325518150806zM-160.1598710067809,37.10150039991913L-31.078355660628073,2.3998194803875426L-160.0117397852532,35.765980455169256z" style="fill:rgb(83,212,212)"/><path d="M-11.229554022516204,-22.716702026124953L-7.7067037681976425,-11.801521054230145L-6.0628640408762795,-12.669582801666479z" style="fill:rgb(168,53,222)"/><path d="M-9.536578038768026,-23.524304078625068L-6.0628640408762795,-12.669582801666479L-4.385550257775862,-13.468932299612096z" style="fill:rgb(160,49,222)"/><path d="M-12.889172028322683,-21.84058617172226L-9.310991551628145,-10.86795284935198L-7.7067037681976425,-11.801521054230145z" style="fill:rgb(175,57,222)"/><path d="M-7.816492807385951,-24.260395264510358L-4.385550257775862,-13.468932299612096L-2.68095486469591,-14.196605381073885z" style="fill:rgb(153,46,222)"/><path d="M-14.509301211406056,-20.89918567023557L-10.86978411284631,-9.872307829754858L-9.310991551628145,-10.86795284935198z" style="fill:rgb(181,61,221)"/><path d="M-6.075641800815641,-24.922221231031955L-2.68095486469591,-14.196605381073885L-0.955369520173702,-14.849877375637693z" style="fill:rgb(146,43,221)"/><path d="M-157.5868240457824,24.197571649774986L-27.307732955683615,-8.753563122069643L-26.381725293353266,-10.125603726091802z" style="fill:rgb(83,212,212)"/><path d="M-16.0839441995846,-19.89595746041686L-12.377290220277452,-8.818234516233085L-10.86978411284631,-9.872307829754858z" style="fill:rgb(188,65,220)"/><path d="M-4.320448505619922,-25.507287532140854L-0.955369520173702,-14.849877375637693L0.7848347297521815,-15.426280013116598z" style="fill:rgb(138,40,220)"/><path d="M-12.377290220277452,-8.818234516233085L-19.07355215041515,-17.718922175887194L-13.827886379899581,-7.70958720121323z" style="fill:rgb(194,70,219)"/><path d="M-160.30778855715,38.43511203607831L-31.0627280110977,3.736049869662386L-160.1598710067809,37.10150039991913z" style="fill:rgb(83,212,212)"/><path d="M-2.5573968690737,-26.013353033777573L0.7848347297521815,-15.426280013116598L2.5332260428036504,-15.92360776757092z" style="fill:rgb(131,38,218)"/><path d="M-13.827886379899581,-7.70958720121323L-20.477346365716624,-16.553068062197504L-15.216135554891567,-6.550417028786319z" style="fill:rgb(200,75,217)"/><path d="M-157.8892012914015,25.36976705315169L-28.13942423190283,-7.364300502348999L-27.307732955683615,-8.753563122069643z" style="fill:rgb(83,212,212)"/><path d="M-0.7930117057630955,-26.43844883880378L2.5332260428036504,-15.92360776757092L4.283329831519238,-16.339922359442184z" style="fill:rgb(123,36,216)"/><path d="M-15.216135554891567,-6.550417028786319L-21.813348069727105,-15.341271535618764L-16.536806886397628,-5.34496032873648z" style="fill:rgb(206,80,215)"/><path d="M0.9661596581381741,-26.780883351156156L4.283329831519238,-16.339922359442184L6.028648856877919,-16.673564908499547z" style="fill:rgb(116,34,214)"/><path d="M23.5045581115446,-120.52004167423982L35.32266966520896,134.47518132380026L27.96473644240177,-110.40796680632326z" style="fill:rgb(247,158,158)"/><path d="M-160.4549142123601,39.7615120624034L-30.9352698062876,5.041614593565955L-160.30778855715,38.43511203607831z" style="fill:rgb(83,212,212)"/><path d="M-16.536806886397628,-5.34496032873648L-23.076488924347046,-14.087963739992814L-17.78488744833884,-4.097627139129426z" style="fill:rgb(212,85,213)"/><path d="M-158.20287217496474,26.585729125579416L-28.873400646951815,-5.963002732834255L-28.13942423190283,-7.364300502348999z" style="fill:rgb(83,212,212)"/><path d="M2.7135678781216814,-27.039242791548524L6.028648856877919,-16.673564908499547L7.762681745133227,-16.923154836921675z" style="fill:rgb(108,33,211)"/><path d="M-17.78488744833884,-4.097627139129426L-24.261939134042798,-12.797735506596593L-18.955598229516422,-2.8129881857736794z" style="fill:rgb(217,91,210)"/><path d="M-7.7067037681976425,-11.801521054230145L-11.229554022516204,-22.716702026124953L-12.889172028322683,-21.84058617172226z" style="fill:rgb(168,53,222)"/><path d="M-6.0628640408762795,-12.669582801666479L-9.536578038768026,-23.524304078625068L-11.229554022516204,-22.716702026124953z" style="fill:rgb(160,49,222)"/><path d="M-9.310991551628145,-10.86795284935198L-12.889172028322683,-21.84058617172226L-14.509301211406056,-20.89918567023557z" style="fill:rgb(175,57,222)"/><path d="M4.442680659593033,-27.21240662155237L7.762681745133227,-16.923154836921675L9.478943531460601,-17.087606776360428z" style="fill:rgb(101,32,208)"/><path d="M-4.385550257775862,-13.468932299612096L-7.816492807385951,-24.260395264510358L-9.536578038768026,-23.524304078625068z" style="fill:rgb(153,46,222)"/><path d="M-158.52665901787447,27.840916343260282L-29.50658795372683,-4.5549318623234685L-28.873400646951815,-5.963002732834255z" style="fill:rgb(83,212,212)"/><path d="M-10.86978411284631,-9.872307829754858L-14.509301211406056,-20.89918567023557L-16.0839441995846,-19.89595746041686z" style="fill:rgb(181,61,221)"/><path d="M-2.68095486469591,-14.196605381073885L-6.075641800815641,-24.922221231031955L-7.816492807385951,-24.260395264510358z" style="fill:rgb(146,43,221)"/><path d="M-160.60064621330568,41.075376513257105L-30.6960247740819,6.3113079487677055L-160.4549142123601,39.7615120624034z" style="fill:rgb(83,212,212)"/><path d="M-18.955598229516422,-2.8129881857736794L-25.365118611201556,-11.475325518150806L-20.044419546619604,-1.4957633761304698z" style="fill:rgb(222,96,207)"/><path d="M-12.377290220277452,-8.818234516233085L-16.0839441995846,-19.89595746041686L-17.607254592700922,-18.83457696606213z" style="fill:rgb(188,65,220)"/><path d="M-0.955369520173702,-14.849877375637693L-4.320448505619922,-25.507287532140854L-6.075641800815641,-24.922221231031955z" style="fill:rgb(138,40,220)"/><path d="M111.1254290069286,-114.23646480316752L161.78315057930743,-69.39712428846472L118.41802201434557,-111.1449978111708z" style="fill:rgb(83,212,212)"/><path d="M-19.07355215041515,-17.718922175887194L-12.377290220277452,-8.818234516233085L-17.607254592700922,-18.83457696606213z" style="fill:rgb(194,70,219)"/><path d="M6.147002973667139,-27.299549575876494L9.478943531460601,-17.087606776360428L11.170986496179733,-17.16612666932148z" style="fill:rgb(94,32,205)"/><path d="M0.7848347297521815,-15.426280013116598L-2.5573968690737,-26.013353033777573L-4.320448505619922,-25.507287532140854z" style="fill:rgb(131,38,218)"/><path d="M-20.477346365716624,-16.553068062197504L-13.827886379899581,-7.70958720121323L-19.07355215041515,-17.718922175887194z" style="fill:rgb(200,75,217)"/><path d="M-20.044419546619604,-1.4957633761304698L-26.381725293353266,-10.125603726091802L-21.047097729655917,-0.15080744360033796z" style="fill:rgb(226,102,203)"/><path d="M2.5332260428036504,-15.92360776757092L-0.7930117057630955,-26.43844883880378L-2.5573968690737,-26.013353033777573z" style="fill:rgb(123,36,216)"/><path d="M-158.77683202400445,29.109125028596914L-30.036268224790753,-3.1454061073360386L-29.50658795372683,-4.5549318623234685z" style="fill:rgb(83,212,212)"/><path d="M-21.813348069727105,-15.341271535618764L-15.216135554891567,-6.550417028786319L-20.477346365716624,-16.553068062197504z" style="fill:rgb(206,80,215)"/><path d="M-160.74439914379306,42.37139455496494L-30.345477437207993,7.540018705983172L-160.60064621330568,41.075376513257105z" style="fill:rgb(83,212,212)"/><path d="M7.820099155417915,-27.300144768430407L11.170986496179733,-17.16612666932148L12.832417009925797,-17.158221759738886z" style="fill:rgb(86,32,201)"/><path d="M4.283329831519238,-16.339922359442184L0.9661596581381741,-26.780883351156156L-0.7930117057630955,-26.43844883880378z" style="fill:rgb(116,34,214)"/><path d="M-23.076488924347046,-14.087963739992814L-16.536806886397628,-5.34496032873648L-21.813348069727105,-15.341271535618764z" style="fill:rgb(212,85,213)"/><path d="M-21.047097729655917,-0.15080744360033796L-27.307732955683615,-8.753563122069643L-21.95966562502871,1.2169038831846652z" style="fill:rgb(230,108,199)"/><path d="M6.028648856877919,-16.673564908499547L2.7135678781216814,-27.039242791548524L0.9661596581381741,-26.780883351156156z" style="fill:rgb(108,33,211)"/><path d="M-159.01673669758893,30.402353921890445L-30.46007866424348,-1.7397854824796382L-30.036268224790753,-3.1454061073360386z" style="fill:rgb(83,212,212)"/><path d="M9.45561092573213,-27.21396705051985L12.832417009925797,-17.158221759738886L14.456921261612868,-17.063704161261647z" style="fill:rgb(79,32,198)"/><path d="M-24.261939134042798,-12.797735506596593L-17.78488744833884,-4.097627139129426L-23.076488924347046,-14.087963739992814z" style="fill:rgb(217,91,210)"/><path d="M-160.8630234472881,43.44092595530744L-29.88454829869755,8.722755258355008L-160.74439914379306,42.37139455496494z" style="fill:rgb(83,212,212)"/><path d="M-21.95966562502871,1.2169038831846652L-28.13942423190283,-7.364300502348999L-22.778453989390115,2.6022877300723626z" style="fill:rgb(234,114,195)"/><path d="M7.762681745133227,-16.923154836921675L4.442680659593033,-27.21240662155237L2.7135678781216814,-27.039242791548524z" style="fill:rgb(101,32,208)"/><path d="M-29.88454829869755,8.722755258355008L-160.8630234472881,43.44092595530744L-160.86969816657944,43.64021190067294z" style="fill:rgb(83,212,212)"/><path d="M-25.365118611201556,-11.475325518150806L-18.955598229516422,-2.8129881857736794L-24.261939134042798,-12.797735506596593z" style="fill:rgb(222,96,207)"/><path d="M11.047280926007675,-27.04110622288474L14.456921261612868,-17.063704161261647L16.038283949529294,-16.88269644444848z" style="fill:rgb(73,33,193)"/><path d="M-159.26112711076576,31.719761067559244L-30.77603147737357,-0.3434524375983598L-30.46007866424348,-1.7397854824796382z" style="fill:rgb(83,212,212)"/><path d="M9.478943531460601,-17.087606776360428L6.147002973667139,-27.299549575876494L4.442680659593033,-27.21240662155237z" style="fill:rgb(94,32,205)"/><path d="M-22.778453989390115,2.6022877300723626L-28.873400646951815,-5.963002732834255L-23.500115627130928,4.000170097295933z" style="fill:rgb(237,120,191)"/><path d="M-26.381725293353266,-10.125603726091802L-20.044419546619604,-1.4957633761304698L-25.365118611201556,-11.475325518150806z" style="fill:rgb(226,102,203)"/><path d="M-160.91057178285286,44.85984390298107L-29.314600682033245,9.8546646215978L-160.86969816657944,43.64021190067294z" style="fill:rgb(83,212,212)"/><path d="M12.588973888255227,-26.781960531069206L16.038283949529294,-16.88269644444848L17.57040933604644,-16.615632284542748z" style="fill:rgb(66,34,189)"/><path d="M11.170986496179733,-17.16612666932148L7.820099155417915,-27.300144768430407L6.147002973667139,-27.299549575876494z" style="fill:rgb(86,32,201)"/><path d="M-159.50906248463284,33.056295539661605L-30.982523045459256,1.0382063724996382L-30.77603147737357,-0.3434524375983598z" style="fill:rgb(83,212,212)"/><path d="M-27.307732955683615,-8.753563122069643L-21.047097729655917,-0.15080744360033796L-26.381725293353266,-10.125603726091802z" style="fill:rgb(230,108,199)"/><path d="M-23.500115627130928,4.000170097295933L-29.50658795372683,-4.5549318623234685L-24.121631993817324,5.405301759049338z" style="fill:rgb(240,125,187)"/><path d="M118.41802201434557,-111.1449978111708L161.78315057930743,-69.39712428846472L125.35335972257919,-107.60554738755904z" style="fill:rgb(83,212,212)"/><path d="M19.047340553322726,-16.26325778943039L12.588973888255227,-26.781960531069206L17.57040933604644,-16.615632284542748z" style="fill:rgb(60,35,184)"/><path d="M-160.95034508431098,46.046725306880774L-28.63743592017474,10.931055247247922L-160.91057178285286,44.85984390298107z" style="fill:rgb(83,212,212)"/><path d="M12.832417009925797,-17.158221759738886L9.45561092573213,-27.21396705051985L7.820099155417915,-27.300144768430407z" style="fill:rgb(79,32,198)"/><path d="M-28.13942423190283,-7.364300502348999L-21.95966562502871,1.2169038831846652L-27.307732955683615,-8.753563122069643z" style="fill:rgb(234,114,195)"/><path d="M-24.121631993817324,5.405301759049338L-30.036268224790753,-3.1454061073360386L-24.640326434891808,6.812373267490611z" style="fill:rgb(242,131,182)"/><path d="M-159.7595948432475,34.40678641608591L-31.078355660628073,2.3998194803875426L-30.982523045459256,1.0382063724996382z" style="fill:rgb(83,212,212)"/><path d="M20.463287614977325,-15.82663743802853L14.074696712259056,-26.437248169406132L19.047340553322726,-16.26325778943039z" style="fill:rgb(54,37,179)"/><path d="M14.456921261612868,-17.063704161261647L11.047280926007675,-27.04110622288474L9.45561092573213,-27.21396705051985z" style="fill:rgb(73,33,193)"/><path d="M-160.9888588432317,47.19591709351943L-27.855308617529207,11.947420293854654L-160.95034508431098,46.046725306880774z" style="fill:rgb(83,212,212)"/><path d="M-28.873400646951815,-5.963002732834255L-22.778453989390115,2.6022877300723626L-28.13942423190283,-7.364300502348999z" style="fill:rgb(237,120,191)"/><path d="M-24.640326434891808,6.812373267490611L-30.46007866424348,-1.7397854824796382L-25.053882880547494,8.216033804044802z" style="fill:rgb(244,137,177)"/><path d="M16.038283949529294,-16.88269644444848L12.588973888255227,-26.781960531069206L11.047280926007675,-27.04110622288474z" style="fill:rgb(66,34,189)"/><path d="M21.812643861389432,-15.307152067470348L15.498621709781837,-26.00799335724847L20.463287614977325,-15.82663743802853z" style="fill:rgb(48,39,174)"/><path d="M-161.0259430061584,48.3026053236563L-26.970906714202187,12.899455903771216L-160.9888588432317,47.19591709351943zM-31.078355660628073,2.3998194803875426L-160.1598710067809,37.10150039991913L-31.0627280110977,3.736049869662386z" style="fill:rgb(83,212,212)"/><path d="M-29.50658795372683,-4.5549318623234685L-23.500115627130928,4.000170097295933L-28.873400646951815,-5.963002732834255z" style="fill:rgb(240,125,187)"/><path d="M-25.053882880547494,8.216033804044802L-30.77603147737357,-0.3434524375983598L-25.360363922747073,9.610909784089799z" style="fill:rgb(245,143,172)"/><path d="M23.090010482474227,-14.706499920076054L16.855111700294426,-25.49554739828905L21.812643861389432,-15.307152067470348z" style="fill:rgb(42,41,169)"/><path d="M12.588973888255227,-26.781960531069206L19.047340553322726,-16.26325778943039L14.074696712259056,-26.437248169406132z" style="fill:rgb(60,35,184)"/><path d="M-30.036268224790753,-3.1454061073360386L-24.121631993817324,5.405301759049338L-29.50658795372683,-4.5549318623234685z" style="fill:rgb(242,131,182)"/><path d="M-161.0614560740408,49.36211661822172L-25.987357173089208,13.783084541611107L-161.0259430061584,48.3026053236563zM-31.0627280110977,3.736049869662386L-160.30778855715,38.43511203607831L-30.9352698062876,5.041614593565955z" style="fill:rgb(83,212,212)"/><path d="M-25.360363922747073,9.610909784089799L-30.982523045459256,1.0382063724996382L-25.558208525625354,10.991620137985716z" style="fill:rgb(246,149,166)"/><path d="M24.290219443629496,-14.02668946199543L18.13873687811847,-24.90157560638472L23.090010482474227,-14.706499920076054z" style="fill:rgb(37,44,163)"/><path d="M14.074696712259056,-26.437248169406132L20.463287614977325,-15.82663743802853L15.498621709781837,-26.00799335724847z" style="fill:rgb(54,37,179)"/><path d="M125.35335972257919,-107.60554738755904L161.78315057930743,-69.39712428846472L131.89926493020985,-103.62088385839299z" style="fill:rgb(83,212,212)"/><path d="M-30.46007866424348,-1.7397854824796382L-24.640326434891808,6.812373267490611L-30.036268224790753,-3.1454061073360386z" style="fill:rgb(244,137,177)"/><path d="M-161.09522910551763,50.369972386698535L-24.908225222840006,14.594478976584304L-161.0614560740408,49.36211661822172zM-30.9352698062876,5.041614593565955L-160.4549142123601,39.7615120624034L-30.6960247740819,6.3113079487677055z" style="fill:rgb(83,212,212)"/><path d="M-25.558208525625354,10.991620137985716L-31.078355660628073,2.3998194803875426L-25.646250330409096,12.35279733102117z" style="fill:rgb(247,155,161)"/><path d="M15.498621709781837,-26.00799335724847L21.812643861389432,-15.307152067470348L16.855111700294426,-25.49554739828905z" style="fill:rgb(48,39,174)"/><path d="M-161.11778588320433,51.04305163533306L-23.737488037570717,15.330076632771469L-161.09522910551763,50.369972386698535z" style="fill:rgb(83,212,212)"/><path d="M25.408350310079847,-13.270048003562549L19.34429641166569,-24.228058867416937L24.290219443629496,-14.02668946199543z" style="fill:rgb(32,47,158)"/><path d="M-30.77603147737357,-0.3434524375983598L-25.053882880547494,8.216033804044802L-30.46007866424348,-1.7397854824796382z" style="fill:rgb(245,143,172)"/><path d="M-23.737488037570717,15.330076632771469L-161.11778588320433,51.04305163533306L-161.10481702226298,51.316174391175636z" style="fill:rgb(83,212,212)"/><path d="M-31.078355660628073,2.3998194803875426L-25.62373692390755,13.68910861263096L-25.646250330409096,12.35279733102117z" style="fill:rgb(247,161,155)"/><path d="M-30.6960247740819,6.3113079487677055L-160.60064621330568,41.075376513257105L-30.345477437207993,7.540018705983172zM-161.06332966010368,52.18984382639475L-22.479542409906106,15.986600804735511L-161.10481702226298,51.316174391175636z" style="fill:rgb(83,212,212)"/><path d="M16.855111700294426,-25.49554739828905L23.090010482474227,-14.706499920076054L18.13873687811847,-24.90157560638472z" style="fill:rgb(42,41,169)"/><path d="M26.439764016767462,-12.439210414117918L20.46684981766078,-23.477293878899832L25.408350310079847,-13.270048003562549z" style="fill:rgb(28,51,152)"/><path d="M-30.982523045459256,1.0382063724996382L-25.360363922747073,9.610909784089799L-30.77603147737357,-0.3434524375983598z" style="fill:rgb(246,149,166)"/><path d="M-31.0627280110977,3.736049869662386L-25.490320945319734,14.995273821808842L-25.62373692390755,13.68910861263096z" style="fill:rgb(246,166,149)"/><path d="M-30.345477437207993,7.540018705983172L-160.74439914379306,42.37139455496494L-29.88454829869755,8.722755258355008zM-161.02480845209035,53.00094715835715L-21.13917937702727,16.561087483545137L-161.06332966010368,52.18984382639475z" style="fill:rgb(83,212,212)"/><path d="M18.13873687811847,-24.90157560638472L24.290219443629496,-14.02668946199543L19.34429641166569,-24.228058867416937z" style="fill:rgb(37,44,163)"/><path d="M-31.078355660628073,2.3998194803875426L-25.558208525625354,10.991620137985716L-30.982523045459256,1.0382063724996382z" style="fill:rgb(247,155,161)"/><path d="M27.38010597482084,-11.537112609000857L21.501729287111548,-22.6518877183188L26.439764016767462,-12.439210414117918z" style="fill:rgb(24,55,146)"/><path d="M-160.98944020062928,53.745967962808216L-19.721573745031947,17.050891732882945L-161.02480845209035,53.00094715835715z" style="fill:rgb(83,212,212)"/><path d="M-30.9352698062876,5.041614593565955L-25.246086009573233,16.266084787055135L-25.490320945319734,14.995273821808842z" style="fill:rgb(245,172,143)"/><path d="M-29.88454829869755,8.722755258355008L-160.86969816657944,43.64021190067294L-29.314600682033245,9.8546646215978zM131.89926493020985,-103.62088385839299L161.78315057930743,-69.39712428846472L138.0234596420397,-99.19549628389736z" style="fill:rgb(83,212,212)"/><path d="M19.34429641166569,-24.228058867416937L25.408350310079847,-13.270048003562549L20.46684981766078,-23.477293878899832z" style="fill:rgb(32,47,158)"/><path d="M-160.95735207468417,54.42165530492104L-18.2322651450852,17.453710343019672L-160.98944020062928,53.745967962808216z" style="fill:rgb(83,212,212)"/><path d="M28.225344807115686,-10.566991441393862L22.444566047212206,-21.754749399113106L27.38010597482084,-11.537112609000857z" style="fill:rgb(20,59,140)"/><path d="M-25.62373692390755,13.68910861263096L-31.078355660628073,2.3998194803875426L-31.0627280110977,3.736049869662386z" style="fill:rgb(247,161,155)"/><path d="M-160.9287045900649,55.02504788173543L-16.677134740790645,17.767595488233503L-160.95735207468417,54.42165530492104zM-29.314600682033245,9.8546646215978L-160.91057178285286,44.85984390298107L-28.63743592017474,10.931055247247922z" style="fill:rgb(83,212,212)"/><path d="M-30.6960247740819,6.3113079487677055L-24.891544452262156,17.496430737843706L-25.246086009573233,16.266084787055135z" style="fill:rgb(244,177,137)"/><path d="M20.46684981766078,-23.477293878899832L26.439764016767462,-12.439210414117918L21.501729287111548,-22.6518877183188z" style="fill:rgb(28,51,152)"/><path d="M28.971787532548152,-9.532374179907436L23.29130760150139,-20.789092820776L28.225344807115686,-10.566991441393862z" style="fill:rgb(17,63,135)"/><path d="M-160.90360195173844,55.55349774898165L-15.062388169951978,17.99097126609402L-160.9287045900649,55.02504788173543z" style="fill:rgb(83,212,212)"/><path d="M-25.490320945319734,14.995273821808842L-31.0627280110977,3.736049869662386L-30.9352698062876,5.041614593565955z" style="fill:rgb(246,166,149)"/><path d="M-28.63743592017474,10.931055247247922L-160.95034508431098,46.046725306880774L-27.855308617529207,11.947420293854654zM-160.88218410407725,56.00467630692857L-13.39452372071074,18.122640882153647L-160.90360195173844,55.55349774898165z" style="fill:rgb(83,212,212)"/><path d="M-30.345477437207993,7.540018705983172L-24.427635241958612,18.68131605896826L-24.891544452262156,17.496430737843706z" style="fill:rgb(242,182,131)"/><path d="M21.501729287111548,-22.6518877183188L27.38010597482084,-11.537112609000857L22.444566047212206,-21.754749399113106z" style="fill:rgb(24,55,146)"/><path d="M-160.86452581042553,56.376580048278605L-11.680307484720968,18.16179798694141L-160.88218410407725,56.00467630692857z" style="fill:rgb(83,212,212)"/><path d="M29.616089793915346,-8.437067564397255L24.038247553519152,-19.758422080814768L28.971787532548152,-9.532374179907436z" style="fill:rgb(14,67,129)"/><path d="M-0.7930117057630955,-26.43844883880378L161.78315057930743,-69.39712428846472L-2.5573968690737,-26.013353033777573z" style="fill:rgb(83,212,212)"/><path d="M-25.246086009573233,16.266084787055135L-30.9352698062876,5.041614593565955L-30.6960247740819,6.3113079487677055z" style="fill:rgb(245,172,143)"/><path d="M-160.85070510500486,56.667569348422106L-9.926744155431672,18.1080373344748L-160.86452581042553,56.376580048278605zM0.9661596581381741,-26.780883351156156L161.79940723211,-69.35909743435424L-0.7930117057630955,-26.43844883880378zM-27.855308617529207,11.947420293854654L-160.9888588432317,47.19591709351943L-26.970906714202187,12.899455903771216z" style="fill:rgb(83,212,212)"/><path d="M-29.88454829869755,8.722755258355008L-23.855741998971776,19.81588462295213L-24.427635241958612,18.68131605896826z" style="fill:rgb(240,187,125)"/><path d="M-160.840794152197,56.8763445420507L-8.14104804246353,17.96135873991468L-160.85070510500486,56.667569348422106zM2.7135678781216814,-27.039242791548524L161.84810919591496,-69.24516247561415L0.9661596581381741,-26.780883351156156z" style="fill:rgb(83,212,212)"/><path d="M22.444566047212206,-21.754749399113106L28.225344807115686,-10.566991441393862L23.29130760150139,-20.789092820776z" style="fill:rgb(20,59,140)"/><path d="M-160.83482372747568,57.00198280464559L-6.330604864456218,17.722171844986644L-160.840794152197,56.8763445420507zM-160.83283079484104,57.04392961913481L-4.5029410119649045,17.391292698171924L-160.83482372747568,57.00198280464559zM4.442680659593033,-27.21240662155237L161.92910397801225,-69.05570494431947L2.7135678781216814,-27.039242791548524z" style="fill:rgb(83,212,212)"/><path d="M-24.891544452262156,17.496430737843706L-30.6960247740819,6.3113079487677055L-30.345477437207993,7.540018705983172z" style="fill:rgb(244,177,137)"/><path d="M-26.970906714202187,12.899455903771216L-161.0259430061584,48.3026053236563L-25.987357173089208,13.783084541611107zM138.0234596420397,-99.19549628389736L161.78315057930743,-69.39712428846472L143.69371827007612,-94.33568918236011zM6.147002973667139,-27.299549575876494L162.0421148088267,-68.79136762435141L4.442680659593033,-27.21240662155237z" style="fill:rgb(83,212,212)"/><path d="M23.29130760150139,-20.789092820776L28.971787532548152,-9.532374179907436L24.038247553519152,-19.758422080814768z" style="fill:rgb(17,63,135)"/><path d="M7.820099155417915,-27.300144768430407L162.1867430813895,-68.45306563772102L6.147002973667139,-27.299549575876494z" style="fill:rgb(83,212,212)"/><path d="M-24.427635241958612,18.68131605896826L-30.345477437207993,7.540018705983172L-29.88454829869755,8.722755258355008z" style="fill:rgb(242,182,131)"/><path d="M-25.987357173089208,13.783084541611107L-161.0614560740408,49.36211661822172L-24.908225222840006,14.594478976584304zM9.45561092573213,-27.21396705051985L162.3625038522991,-68.04195370217404L7.820099155417915,-27.300144768430407z" style="fill:rgb(83,212,212)"/><path d="M24.038247553519152,-19.758422080814768L29.616089793915346,-8.437067564397255L24.68203742003967,-18.666523582831925z" style="fill:rgb(14,67,129)"/><path d="M-24.908225222840006,14.594478976584304L-161.09522910551763,50.369972386698535L-23.737488037570717,15.330076632771469zM11.047280926007675,-27.04110622288474L162.56877601848382,-67.55945862277483L9.45561092573213,-27.21396705051985z" style="fill:rgb(83,212,212)"/><path d="M-23.855741998971776,19.81588462295213L-29.88454829869755,8.722755258355008L-29.314600682033245,9.8546646215978z" style="fill:rgb(240,187,125)"/><path d="M12.588973888255227,-26.781960531069206L162.8048505567114,-67.00724840588686L11.047280926007675,-27.04110622288474zM-23.737488037570717,15.330076632771469L-161.10481702226298,51.316174391175636L-22.479542409906106,15.986600804735511zM14.074696712259056,-26.437248169406132L163.06991866017955,-66.3872373713967L12.588973888255227,-26.781960531069206zM-22.479542409906106,15.986600804735511L-161.06332966010368,52.18984382639475L-21.13917937702727,16.561087483545137zM143.69371827007612,-94.33568918236011L161.78315057930743,-69.39712428846472L148.878067569595,-89.04980015908328zM15.498621709781837,-26.00799335724847L163.36304583053544,-65.70159103013931L14.074696712259056,-26.437248169406132zM-21.13917937702727,16.561087483545137L-161.02480845209035,53.00094715835715L-19.721573745031947,17.050891732882945zM16.855111700294426,-25.49554739828905L163.6831975883086,-64.95271525663506L15.498621709781837,-26.00799335724847zM-19.721573745031947,17.050891732882945L-160.98944020062928,53.745967962808216L-18.2322651450852,17.453710343019672zM18.13873687811847,-24.90157560638472L164.0292614051728,-64.14324425301413L16.855111700294426,-25.49554739828905zM-18.2322651450852,17.453710343019672L-160.95735207468417,54.42165530492104L-16.677134740790645,17.767595488233503zM19.34429641166569,-24.228058867416937L164.33850472617635,-63.259911933802925L18.13873687811847,-24.90157560638472zM-16.677134740790645,17.767595488233503L-160.9287045900649,55.02504788173543L-15.062388169951978,17.99097126609402zM-15.062388169951978,17.99097126609402L-160.90360195173844,55.55349774898165L-13.39452372071074,18.122640882153647zM20.46684981766078,-23.477293878899832L164.64019641765577,-62.31387210337086L19.34429641166569,-24.228058867416937zM-13.39452372071074,18.122640882153647L-160.88218410407725,56.00467630692857L-11.680307484720968,18.16179798694141zM148.878067569595,-89.04980015908328L161.78315057930743,-69.39712428846472L153.5449617078893,-83.34827703907426zM-11.680307484720968,18.16179798694141L-160.86452581042553,56.376580048278605L-9.926744155431672,18.1080373344748zM21.501729287111548,-22.6518877183188L164.95867328545734,-61.315215066780944L20.46684981766078,-23.477293878899832zM-9.926744155431672,18.1080373344748L-160.85070510500486,56.667569348422106L-8.14104804246353,17.96135873991468zM161.78315057930743,-69.39712428846472L-0.7930117057630955,-26.43844883880378L161.79940723211,-69.35909743435424zM161.79940723211,-69.35909743435424L0.9661596581381741,-26.780883351156156L161.84810919591496,-69.24516247561415zM-8.14104804246353,17.96135873991468L-160.840794152197,56.8763445420507L-6.330604864456218,17.722171844986644zM161.84810919591496,-69.24516247561415L2.7135678781216814,-27.039242791548524L161.92910397801225,-69.05570494431947zM22.444566047212206,-21.754749399113106L165.29277792761138,-60.26753995834701L21.501729287111548,-22.6518877183188zM-6.330604864456218,17.722171844986644L-160.83482372747568,57.00198280464559L-4.5029410119649045,17.391292698171924zM161.92910397801225,-69.05570494431947L4.442680659593033,-27.21240662155237L162.0421148088267,-68.79136762435141zM-4.5029410119649045,17.391292698171924L-160.83283079484104,57.04392961913481L-2.6656867009287133,16.96995233818371zM162.0421148088267,-68.79136762435141L6.147002973667139,-27.299549575876494L162.1867430813895,-68.45306563772102zM23.29130760150139,-20.789092820776L165.6412894621125,-59.17467488489436L22.444566047212206,-21.754749399113106zM162.1867430813895,-68.45306563772102L7.820099155417915,-27.300144768430407L162.3625038522991,-68.04195370217404zM162.3625038522991,-68.04195370217404L9.45561092573213,-27.21396705051985L162.56877601848382,-67.55945862277483zM-160.76165175819975,58.54294989098088L168.92434478259088,-26.504906126571402L-160.83283079484104,57.04392961913481zM24.038247553519152,-19.758422080814768L166.0029350129651,-58.04062968938667L23.29130760150139,-20.789092820776zM162.56877601848382,-67.55945862277483L11.047280926007675,-27.04110622288474L162.8048505567114,-67.00724840588686zM153.5449617078893,-83.34827703907426L161.78315057930743,-69.39712428846472L157.66356380692196,-77.24387707459427zM162.8048505567114,-67.00724840588686L12.588973888255227,-26.781960531069206L163.06991866017955,-66.3872373713967zM24.68203742003967,-18.666523582831925L166.3763709798164,-56.86961040338922L24.038247553519152,-19.758422080814768zM163.06991866017955,-66.3872373713967L14.074696712259056,-26.437248169406132L163.36304583053544,-65.70159103013931zM25.219704929066076,-17.517459070019985L166.66328110412667,-55.640731348302864L24.68203742003967,-18.666523582831925zM163.36304583053544,-65.70159103013931L15.498621709781837,-26.00799335724847L163.6831975883086,-64.95271525663506zM168.92434478259088,-26.504906126571402L-160.76165175819975,58.54294989098088L-159.78192576094213,65.91022281818958zM163.6831975883086,-64.95271525663506L16.855111700294426,-25.49554739828905L164.0292614051728,-64.14324425301413zM25.648677407342397,-16.31554937143454L166.9380605003225,-54.37833543030704L25.219704929066076,-17.517459070019985zM164.0292614051728,-64.14324425301413L18.13873687811847,-24.90157560638472L164.33850472617635,-63.259911933802925zM25.966804242588335,-15.065364689829922L167.21804874478536,-53.0920158606188L25.648677407342397,-16.31554937143454zM164.33850472617635,-63.259911933802925L19.34429641166569,-24.228058867416937L164.64019641765577,-62.31387210337086zM157.66356380692196,-77.24387707459427L161.78315057930743,-69.39712428846472L161.2040290333824,-70.75174662654851zM26.172357694571023,-13.77170674411718L167.50218515049278,-51.78667746508507L25.966804242588335,-15.065364689829922zM164.64019641765577,-62.31387210337086L20.46684981766078,-23.477293878899832L164.95867328545734,-61.315215066780944zM168.92434478259088,-26.504906126571402L-159.78192576094213,65.91022281818958L-158.16777386963466,73.11353559718766zM26.26405446450467,-12.439595974658394L167.78934872991942,-50.467357908488374L26.172357694571023,-13.77170674411718zM164.95867328545734,-61.315215066780944L21.501729287111548,-22.6518877183188L165.29277792761138,-60.26753995834701zM165.29277792761138,-60.26753995834701L22.444566047212206,-21.754749399113106L165.6412894621125,-59.17467488489436zM168.24526779047014,-47.775554644145544L26.26405446450467,-12.439595974658394L26.241077383618453,-11.074249022040222zM165.6412894621125,-59.17467488489436L23.29130760150139,-20.789092820776L166.0029350129651,-58.04062968938667zM168.41188367512783,-46.413660632048874L26.241077383618453,-11.074249022040222L26.10306757927562,-9.681060289797953zM166.0029350129651,-58.04062968938667L24.038247553519152,-19.758422080814768L166.3763709798164,-56.86961040338922z" style="fill:rgb(83,212,212)"/><path d="M164.13770312986364,-63.88958614674171L170.12307186417294,-45.72733498872573L167.81734314278063,-52.952915341657956z" style="fill:rgb(246,166,149)"/><path d="M168.57760819702935,-45.058921908000436L26.10306757927562,-9.681060289797953L25.850151599443205,-8.265583274662387zM168.92434478259088,-26.504906126571402L-158.16777386963466,73.11353559718766L-155.91051781598009,80.1207549877674zM166.3763709798164,-56.86961040338922L24.68203742003967,-18.666523582831925L166.66328110412667,-55.640731348302864zM168.74179984251006,-43.71678347310118L25.850151599443205,-8.265583274662387L25.48293893749599,-6.833506520155724zM166.66328110412667,-55.640731348302864L25.219704929066076,-17.517459070019985L166.9380605003225,-54.37833543030704zM168.90378758406854,-42.39267049599119L25.48293893749599,-6.833506520155724L25.002518717388508,-5.390627719364542zM166.9380605003225,-54.37833543030704L25.648677407342397,-16.31554937143454L167.21804874478536,-53.0920158606188z" style="fill:rgb(83,212,212)"/><path d="M-133.59459905515152,114.89508448799778L-145.23076846359717,99.63492505770584L-138.4633239252284,108.99109669367499z" style="fill:rgb(28,51,152)"/><path d="M169.04421918640404,-41.08719002135828L25.002518717388508,-5.390627719364542L24.410476454739655,-3.9428320264703505zM164.0292614051728,-64.14324425301413L164.33850472617635,-63.259911933802925L164.13770312986364,-63.88958614674171zM169.08543390085444,-39.78594709509074L24.410476454739655,-3.9428320264703505L23.70888773215578,-2.4960651333454575zM167.21804874478536,-53.0920158606188L25.966804242588335,-15.065364689829922L167.50218515049278,-51.78667746508507z" style="fill:rgb(83,212,212)"/><path d="M170.12307186417294,-45.72733498872573L164.13770312986364,-63.88958614674171L166.4375568994706,-56.6777160992344z" style="fill:rgb(246,166,149)"/><path d="M168.92434478259088,-26.504906126571402L-155.91051781598009,80.1207549877674L-153.00386849805372,86.89903090501669zM169.12554121936802,-38.5196001029901L23.70888773215578,-2.4960651333454575L22.90030957692157,-1.0563045419951775zM167.50218515049278,-51.78667746508507L26.172357694571023,-13.77170674411718L167.78934872991942,-50.467357908488374zM169.16437946817396,-37.293413923725566L22.90030957692157,-1.0563045419951775L21.98777497765547,0.3704666966359942z" style="fill:rgb(83,212,212)"/><path d="M166.4375568994706,-56.6777160992344L171.77605804723353,-38.1796313947437L170.12307186417294,-45.72733498872573z" style="fill:rgb(247,161,155)"/><path d="M167.78934872991942,-50.467357908488374L26.26405446450467,-12.439595974658394L168.07844964849033,-49.1391842481287zM169.2017778763377,-36.112538001645554L21.98777497765547,0.3704666966359942L20.974792225737197,1.77828840513031zM26.26405446450467,-12.439595974658394L168.24526779047014,-47.775554644145544L168.07844964849033,-49.1391842481287zM169.23758029913358,-34.98195417273979L20.974792225737197,1.77828840513031L19.86532393217734,3.16125295841854z" style="fill:rgb(83,212,212)"/><path d="M-145.23076846359717,99.63492505770584L-133.59459905515152,114.89508448799778L-140.36609830566104,105.52494294936605z" style="fill:rgb(28,51,152)"/><path d="M169.27164216203633,-33.906462916731996L19.86532393217734,3.16125295841854L18.663776225935496,4.513533553460498zM26.241077383618453,-11.074249022040222L168.41188367512783,-46.413660632048874L168.24526779047014,-47.775554644145544zM169.27754747142922,-32.8839669609039L18.663776225935496,4.513533553460498L17.374976521764218,5.8294131070542825zM168.92434478259088,-26.504906126571402L-153.00386849805372,86.89903090501669L-149.44418695346977,93.41500333977704zM169.22366291009814,-31.91082228018558L17.374976521764218,5.8294131070542825L16.00416326113925,7.103314159784202z" style="fill:rgb(83,212,212)"/><path d="M-29.88454829869755,8.722755258355008L-27.422861593198856,148.62983814915916L-24.427635241958612,18.68131605896826z" style="fill:rgb(247,158,158)"/><path d="M26.10306757927562,-9.681060289797953L168.57760819702935,-45.058921908000436L168.41188367512783,-46.413660632048874z" style="fill:rgb(83,212,212)"/><path d="M-128.0880226100464,120.43785261147202L-140.36609830566104,105.52494294936605L-133.59459905515152,114.89508448799778z" style="fill:rgb(32,47,158)"/><path d="M-35.083791803189,138.99202364973092L-25.62373692390755,13.68910861263096L-31.0627280110977,3.736049869662386z" style="fill:rgb(247,158,158)"/><path d="M169.17364610665553,-31.007408737202876L16.00416326113925,7.103314159784202L14.556953471522682,8.329825917055576zM166.3763709798164,-56.86961040338922L166.66328110412667,-55.640731348302864L166.4375568994706,-56.6777160992344z" style="fill:rgb(83,212,212)"/><path d="M-29.314600682033245,9.8546646215978L-26.750916224383506,148.57250059302766L-23.855741998971776,19.81588462295213z" style="fill:rgb(247,158,158)"/><path d="M169.12769864520442,-30.177636801922308L14.556953471522682,8.329825917055576L13.039317969325214,9.503732763634012z" style="fill:rgb(83,212,212)"/><path d="M-34.895735240921326,138.97527476209135L-25.490320945319734,14.995273821808842L-30.9352698062876,5.041614593565955z" style="fill:rgb(247,158,158)"/><path d="M25.850151599443205,-8.265583274662387L168.74179984251006,-43.71678347310118L168.57760819702935,-45.058921908000436zM169.0860277887799,-29.425112015829672L13.039317969325214,9.503732763634012L11.45755928979071,10.62004112009882zM169.04882444719166,-28.753125597979242L11.45755928979071,10.62004112009882L9.818278394130006,11.674005355840517z" style="fill:rgb(83,212,212)"/><path d="M-28.63743592017474,10.931055247247922L-25.962686335058972,148.50524044694882L-23.177689496579294,20.895437869592335z" style="fill:rgb(247,158,158)"/><path d="M168.92434478259088,-26.504906126571402L-0.8265383923345249,16.459782543257973L-2.6656867009287133,16.96995233818371z" style="fill:rgb(83,212,212)"/><path d="M-34.583070906203496,138.9474071450195L-25.246086009573233,16.266084787055135L-30.6960247740819,6.3113079487677055z" style="fill:rgb(247,158,158)"/><path d="M169.01624107187132,-28.164620621406023L9.818278394130006,11.674005355840517L8.128341599588657,12.661150633156552zM168.92693141505083,-26.551611801187377L1.006777985353421,15.86281812515418L-0.8265383923345249,16.459782543257973z" style="fill:rgb(83,212,212)"/><path d="M171.77605804723353,-38.1796313947437L166.4375568994706,-56.6777160992344L168.07844964849033,-49.1391842481287z" style="fill:rgb(247,161,155)"/><path d="M168.98841603896386,-27.66218592831661L8.128341599588657,12.661150633156552L6.394848562189556,13.577298698078009zM168.9346706194534,-26.691515299632062L2.826546236243722,15.181483235700133L1.006777985353421,15.86281812515418zM168.9654857541327,-27.248038273633476L6.394848562189556,13.577298698078009L4.625097481078024,14.418584295894169zM168.9475408786061,-26.924002994480468L4.625097481078024,14.418584295894169L2.826546236243722,15.181483235700133zM25.48293893749599,-6.833506520155724L168.90378758406854,-42.39267049599119L168.74179984251006,-43.71678347310118z" style="fill:rgb(83,212,212)"/><path d="M-34.14695127887433,138.90856319854473L-24.891544452262156,17.496430737843706L-30.345477437207993,7.540018705983172z" style="fill:rgb(247,158,158)"/><path d="M25.002518717388508,-5.390627719364542L169.04421918640404,-41.08719002135828L168.90378758406854,-42.39267049599119z" style="fill:rgb(83,212,212)"/><path d="M-25.987357173089208,13.783084541611107L-22.9315284813709,148.2466115828442L-20.531361320626363,23.759887514507223z" style="fill:rgb(247,158,158)"/><path d="M24.410476454739655,-3.9428320264703505L169.08543390085444,-39.78594709509074L169.04421918640404,-41.08719002135828zM168.92434478259088,-26.504906126571402L-149.44418695346977,93.41500333977704L-145.23076846359717,99.63492505770584z" style="fill:rgb(83,212,212)"/><path d="M-24.908225222840006,14.594478976584304L-21.711489162210327,148.14251903565906L-19.455626771859453,24.57636056601677z" style="fill:rgb(247,158,158)"/><path d="M23.70888773215578,-2.4960651333454575L169.12554121936802,-38.5196001029901L169.08543390085444,-39.78594709509074z" style="fill:rgb(83,212,212)"/><path d="M-140.36609830566104,105.52494294936605L-128.0880226100464,120.43785261147202L-134.85610972611713,111.05126639552832z" style="fill:rgb(32,47,158)"/><path d="M171.77605804723353,-38.1796313947437L169.0374765447983,-41.29980322138407L172.75365503805534,-30.335804127863497z" style="fill:rgb(247,155,161)"/><path d="M-31.206714203428394,138.6466004334094L-22.39573848253393,21.915460963452592L-27.855308617529207,11.947420293854654zM-23.737488037570717,15.330076632771469L-20.393879400083584,148.03009023605796L-18.289356870807623,25.317482372627833z" style="fill:rgb(247,158,158)"/><path d="M22.90030957692157,-1.0563045419951775L169.16437946817396,-37.293413923725566L169.12554121936802,-38.5196001029901z" style="fill:rgb(83,212,212)"/><path d="M-28.967062368791392,148.76159543147182L-27.8542378270433,-105.85623762052276L-35.14655678062486,138.9976200482562z" style="fill:rgb(247,158,158)"/><path d="M169.0374765447983,-41.29980322138407L171.77605804723353,-38.1796313947437L168.07844964849033,-49.1391842481287z" style="fill:rgb(247,155,161)"/><path d="M-30.18628674742278,138.55569147025085L-21.512584377266904,22.871641022376277L-26.970906714202187,12.899455903771216zM-22.479542409906106,15.986600804735511L-18.98274349593541,147.85462186619142L-17.036930755124096,25.979960636936745z" style="fill:rgb(247,158,158)"/><path d="M-121.95350955316431,125.5860968784436L-134.85610972611713,111.05126639552832L-128.0880226100464,120.43785261147202z" style="fill:rgb(37,44,163)"/><path d="M21.98777497765547,0.3704666966359942L169.2017778763377,-36.112538001645554L169.16437946817396,-37.293413923725566zM20.974792225737197,1.77828840513031L169.23758029913358,-34.98195417273979L169.2017778763377,-36.112538001645554z" style="fill:rgb(83,212,212)"/><path d="M-19.721573745031947,17.050891732882945L-15.903683575774554,147.42211647156287L-14.29309844739321,27.05736456105671z" style="fill:rgb(247,158,158)"/><path d="M168.92434478259088,-26.504906126571402L-145.23076846359717,99.63492505770584L-140.36609830566104,105.52494294936605zM19.86532393217734,3.16125295841854L169.27164216203633,-33.906462916731996L169.23758029913358,-34.98195417273979z" style="fill:rgb(83,212,212)"/><path d="M-18.2322651450852,17.453710343019672L-14.247827972459122,147.18951381714325L-12.812354856294196,27.467297085540288z" style="fill:rgb(247,158,158)"/><path d="M18.663776225935496,4.513533553460498L169.27754747142922,-32.8839669609039L169.27164216203633,-33.906462916731996z" style="fill:rgb(83,212,212)"/><path d="M-16.677134740790645,17.767595488233503L-12.522732898413471,146.9471995093893L-11.266747624022534,27.788642001005012z" style="fill:rgb(247,158,158)"/><path d="M17.374976521764218,5.8294131070542825L169.22366291009814,-31.91082228018558L169.27754747142922,-32.8839669609039zM16.00416326113925,7.103314159784202L169.17364610665553,-31.007408737202876L169.22366291009814,-31.91082228018558z" style="fill:rgb(83,212,212)"/><path d="M-23.56286102441578,137.82758476213817L-15.703126982876801,26.56080946315854L-21.13917937702727,16.561087483545137zM-13.39452372071074,18.122640882153647L-8.891470449201119,146.4371144719578L-8.00590067306001,28.159521233157523z" style="fill:rgb(247,158,158)"/><path d="M14.556953471522682,8.329825917055576L169.12769864520442,-30.177636801922308L169.17364610665553,-31.007408737202876z" style="fill:rgb(83,212,212)"/><path d="M-134.85610972611713,111.05126639552832L-121.95350955316431,125.5860968784436L-128.71042362033745,116.1804892806598z" style="fill:rgb(37,44,163)"/><path d="M13.039317969325214,9.503732763634012L169.0860277887799,-29.425112015829672L169.12769864520442,-30.177636801922308z" style="fill:rgb(83,212,212)"/><path d="M25.002518717388508,-5.390627719364542L33.73095106799553,135.04349589314177L29.996878741503714,4.8406133361658075z" style="fill:rgb(247,158,158)"/><path d="M172.75365503805534,-30.335804127863497L169.29439207595195,-33.18819243116583L173.03585048853816,-22.224625500377165z" style="fill:rgb(246,149,166)"/><path d="M11.45755928979071,10.62004112009882L169.04882444719166,-28.753125597979242L169.0860277887799,-29.425112015829672zM9.818278394130006,11.674005355840517L169.01624107187132,-28.164620621406023L169.04882444719166,-28.753125597979242z" style="fill:rgb(83,212,212)"/><path d="M169.29439207595195,-33.18819243116583L172.75365503805534,-30.335804127863497L169.0374765447983,-41.29980322138407z" style="fill:rgb(246,149,166)"/><path d="M29.692832981978242,124.41770274000604L31.199590424302084,-0.8364856208249976L26.241077383618453,-11.074249022040222z" style="fill:rgb(247,158,158)"/><path d="M8.128341599588657,12.661150633156552L168.98841603896386,-27.66218592831661L169.01624107187132,-28.164620621406023zM168.92434478259088,-26.504906126571402L-140.36609830566104,105.52494294936605L-134.85610972611713,111.05126639552832z" style="fill:rgb(83,212,212)"/><path d="M-115.20481872748934,130.30719042602004L-128.71042362033745,116.1804892806598L-121.95350955316431,125.5860968784436z" style="fill:rgb(42,41,169)"/><path d="M6.394848562189556,13.577298698078009L168.9654857541327,-27.248038273633476L168.98841603896386,-27.66218592831661zM168.90378758406854,-42.39267049599119L169.04421918640404,-41.08719002135828L169.0374765447983,-41.29980322138407zM4.625097481078024,14.418584295894169L168.9475408786061,-26.924002994480468L168.9654857541327,-27.248038273633476zM-0.8265383923345249,16.459782543257973L168.92434478259088,-26.504906126571402L168.92693141505083,-26.551611801187377zM2.826546236243722,15.181483235700133L168.9346706194534,-26.691515299632062L168.9475408786061,-26.924002994480468z" style="fill:rgb(83,212,212)"/><path d="M29.49853697945504,124.48738836653436L31.06914865758659,0.5559803159828297L26.10306757927562,-9.681060289797953z" style="fill:rgb(247,158,158)"/><path d="M1.006777985353421,15.86281812515418L168.92693141505083,-26.551611801187377L168.9346706194534,-26.691515299632062z" style="fill:rgb(83,212,212)"/><path d="M-16.75274400880827,136.84788406138523L-9.662444011811722,28.019791189781966L-15.062388169951978,17.99097126609402zM29.175585660639225,124.60320256452884L30.82474792819887,1.970125929776663L25.850151599443205,-8.265583274662387zM28.72529013910004,124.7647071818499L30.46697023322498,3.4002675235896467L25.48293893749599,-6.833506520155724zM19.86532393217734,3.16125295841854L27.865193489531297,137.13785369141064L24.938033178710537,13.365529717900287zM-12.982084558963917,136.21901343172206L-6.303838153343428,28.206994541952515L-11.680307484720968,18.16179798694141zM17.374976521764218,5.8294131070542825L25.07421446026236,138.07867244948602L22.478794531473902,16.02072001365791zM16.00416326113925,7.103314159784202L23.54424827643838,138.54143888080077L21.124197508219034,17.287511053378704zM14.556953471522682,8.329825917055576L21.93350708418629,139.02864193432498L19.69355212882026,18.506538793467218zM-11.030029216395862,135.83311687924032L-4.5632118799060075,28.161777272748527L-9.926744155431672,18.1080373344748zM13.039317969325214,9.503732763634012L20.2484822454612,139.53831053134132L18.192760579092386,19.672623713282157zM27.450442326988018,125.22192327373344L29.41602262311919,6.285288267337189L24.410476454739655,-3.9428320264703505zM-9.044101112738575,135.44053739780276L-2.7911787268484347,28.02383639531436L-8.14104804246353,17.96135873991468zM26.63105054329481,125.51578795511217L28.726429462136174,7.728361472836758L23.70888773215578,-2.4960651333454575zM-7.032043561022983,135.04280279446027L-0.9950670183127145,27.793544207150212L-6.330604864456218,17.722171844986644zM25.694600394376824,125.851645592518L27.930617191730835,9.163870476231732L22.90030957692157,-1.0563045419951775zM-5.001728466891518,134.64144220619372L0.817659264556382,27.471682524715558L-4.5029410119649045,17.391292698171924zM24.644869487607505,126.22811836472772L27.031569715842792,10.585851363661527L21.98777497765547,0.3704666966359942z" style="fill:rgb(247,158,158)"/><path d="M168.92434478259088,-26.504906126571402L-134.85610972611713,111.05126639552832L-128.71042362033745,116.1804892806598z" style="fill:rgb(83,212,212)"/><path d="M-2.9611256691918486,134.23805751572073L2.6394360741782883,27.05944565003947L-2.6656867009287133,16.96995233818371zM23.486096047724722,126.6436998749029L26.032737842382588,11.988366091356104L20.974792225737197,1.77828840513031zM-0.9181859480586625,133.72511512177815L4.46263500928988,26.558427574667817L-0.8265383923345249,16.459782543257973z" style="fill:rgb(247,158,158)"/><path d="M-128.71042362033745,116.1804892806598L-115.20481872748934,130.30719042602004L-121.94258842600969,120.87988629740792z" style="fill:rgb(42,41,169)"/><path d="M173.03585048853816,-22.224625500377165L168.83192494427996,-24.83575499918203L172.6055627762332,-13.87761348472841z" style="fill:rgb(245,143,172)"/><path d="M1.1185552768655447,133.21373451613587L6.279601620121873,25.970623072735677L1.006777985353421,15.86281812515418zM20.860522978457517,127.58535319150991L23.751795548380485,14.71154392776034L18.663776225935496,4.513533553460498zM3.1410296610081754,132.70593203284537L8.082692217821547,25.298421513563316L2.826546236243722,15.181483235700133zM5.141203154728266,132.2037295706716L9.864312659694672,24.544585355553068L4.625097481078024,14.418584295894169zM35.32266966520896,134.47518132380026L23.5045581115446,-120.52004167423982L29.75768409801269,124.39444893856434zM7.111108556924089,131.70912143503435L11.616957063645664,23.71225212644955L6.394848562189556,13.577298698078009z" style="fill:rgb(247,158,158)"/><path d="M168.83192494427996,-24.83575499918203L173.03585048853816,-22.224625500377165L169.29439207595195,-33.18819243116583z" style="fill:rgb(245,143,172)"/><path d="M9.042752915075479,131.2076484264904L13.333241596802704,22.80491072146168L8.128341599588657,12.661150633156552zM12.758904016782738,130.07585164784888L16.62804953942533,20.780807471015116L11.45755928979071,10.62004112009882zM10.927689895596004,130.6335609060773L15.005946481890138,21.82638249969361L9.818278394130006,11.674005355840517z" style="fill:rgb(247,158,158)"/><path d="M-107.85977979198074,134.56944880196954L-121.94258842600969,120.87988629740792L-115.20481872748934,130.30719042602004z" style="fill:rgb(48,39,174)"/><path d="M169.27164216203633,-33.906462916731996L169.27754747142922,-32.8839669609039L169.29439207595195,-33.18819243116583zM168.92434478259088,-26.504906126571402L-128.71042362033745,116.1804892806598L-121.94258842600969,120.87988629740792z" style="fill:rgb(83,212,212)"/><path d="M-121.94258842600969,120.87988629740792L-107.85977979198074,134.56944880196954L-114.5702502254646,125.11767709380086z" style="fill:rgb(48,39,174)"/><path d="M172.6055627762332,-13.87761348472841L167.63615723522526,-16.276640693792626L171.44907464227327,-5.328991525123388zM167.63615723522526,-16.276640693792626L172.6055627762332,-13.87761348472841L168.83192494427996,-24.83575499918203z" style="fill:rgb(244,137,177)"/><path d="M-99.94044220200709,138.34253003819978L-114.5702502254646,125.11767709380086L-107.85977979198074,134.56944880196954z" style="fill:rgb(54,37,179)"/><path d="M168.92434478259088,-26.504906126571402L-121.94258842600969,120.87988629740792L-114.5702502254646,125.11767709380086zM168.92434478259088,-26.504906126571402L167.63615723522526,-16.276640693792626L168.83192494427996,-24.83575499918203zM168.92434478259088,-26.504906126571402L-114.5702502254646,125.11767709380086L-106.61531169522871,128.86343402981757z" style="fill:rgb(83,212,212)"/><path d="M171.44907464227327,-5.328991525123388L165.69696322042282,-7.547656979180523L169.556328707843,3.384408687371644z" style="fill:rgb(242,131,182)"/><path d="M-114.5702502254646,125.11767709380086L-99.94044220200709,138.34253003819978L-106.61531169522871,128.86343402981757z" style="fill:rgb(54,37,179)"/><path d="M165.69696322042282,-7.547656979180523L171.44907464227327,-5.328991525123388L167.63615723522526,-16.276640693792626z" style="fill:rgb(242,131,182)"/><path d="M-91.47315358084865,141.59775119450387L-106.61531169522871,128.86343402981757L-99.94044220200709,138.34253003819978z" style="fill:rgb(60,35,184)"/><path d="M-25.62373692390755,13.68910861263096L-35.083791803189,138.99202364973092L-28.904839173741678,148.7562815495359z" style="fill:rgb(247,158,158)"/><path d="M168.92434478259088,-26.504906126571402L165.69696322042282,-7.547656979180523L167.63615723522526,-16.276640693792626z" style="fill:rgb(83,212,212)"/><path d="M-25.490320945319734,14.995273821808842L-34.895735240921326,138.97527476209135L-28.71839305037447,148.74037912474853zM-25.246086009573233,16.266084787055135L-34.583070906203496,138.9474071450195L-28.408412318436504,148.7139189909993zM-24.891544452262156,17.496430737843706L-34.14695127887433,138.90856319854473L-27.976040320524703,148.67703826107663z" style="fill:rgb(247,158,158)"/><path d="M168.92434478259088,-26.504906126571402L-106.61531169522871,128.86343402981757L-98.10407105531078,132.08840042896946z" style="fill:rgb(83,212,212)"/><path d="M-22.39573848253393,21.915460963452592L-31.206714203428394,138.6466004334094L-25.061084869461688,148.42831499563775zM-21.512584377266904,22.871641022376277L-30.18628674742278,138.55569147025085L-24.049446417818356,148.34200209411634z" style="fill:rgb(247,158,158)"/><path d="M168.92434478259088,-26.504906126571402L163.00824217980656,1.311874544087792L165.69696322042282,-7.547656979180523z" style="fill:rgb(83,212,212)"/><path d="M-27.422861593198856,148.62983814915916L-29.88454829869755,8.722755258355008L-33.58897973058091,138.8588510963954z" style="fill:rgb(247,158,158)"/><path d="M169.556328707843,3.384408687371644L163.00824217980656,1.311874544087792L166.9213272643822,12.22328601848673z" style="fill:rgb(240,125,187)"/><path d="M-106.61531169522871,128.86343402981757L-91.47315358084865,141.59775119450387L-98.10407105531078,132.08840042896946z" style="fill:rgb(60,35,184)"/><path d="M-26.750916224383506,148.57250059302766L-29.314600682033245,9.8546646215978L-32.9112125201573,138.7984618349391zM-25.962686335058972,148.50524044694882L-28.63743592017474,10.931055247247922L-32.116143119859665,138.72762152950867z" style="fill:rgb(247,158,158)"/><path d="M163.00824217980656,1.311874544087792L169.556328707843,3.384408687371644L165.69696322042282,-7.547656979180523z" style="fill:rgb(240,125,187)"/><path d="M168.92434478259088,-26.504906126571402L-98.10407105531078,132.08840042896946L-89.06729968357037,134.7658890753552z" style="fill:rgb(83,212,212)"/><path d="M-15.703126982876801,26.56080946315854L-23.56286102441578,137.82758476213817L-17.483988936308315,147.64409617375645zM-22.9315284813709,148.2466115828442L-25.987357173089208,13.783084541611107L-29.05864343735213,138.45522105529517z" style="fill:rgb(247,158,158)"/><path d="M-89.06729968357037,134.7658890753552L-91.47315358084865,141.59775119450387L-82.48865495757674,144.30848190822667z" style="fill:rgb(66,34,189)"/><path d="M-21.711489162210327,148.14251903565906L-24.908225222840006,14.594478976584304L-27.827982300030875,138.34558360299008z" style="fill:rgb(247,158,158)"/><path d="M168.92434478259088,-26.504906126571402L159.568335415077,10.26029609641263L163.00824217980656,1.311874544087792z" style="fill:rgb(83,212,212)"/><path d="M-20.393879400083584,148.03009023605796L-23.737488037570717,15.330076632771469L-26.49888440185206,138.2271650749195z" style="fill:rgb(247,158,158)"/><path d="M-91.47315358084865,141.59775119450387L-89.06729968357037,134.7658890753552L-98.10407105531078,132.08840042896946z" style="fill:rgb(66,34,189)"/><path d="M-18.98274349593541,147.85462186619142L-22.479542409906106,15.986600804735511L-25.075145132202966,138.0451392033619zM-9.662444011811722,28.019791189781966L-16.75274400880827,136.84788406138523L-10.734994502336798,146.69607469560734z" style="fill:rgb(247,158,158)"/><path d="M168.92434478259088,-26.504906126571402L-89.06729968357037,134.7658890753552L-79.5402017785399,136.87162069052604z" style="fill:rgb(83,212,212)"/><path d="M166.9213272643822,12.22328601848673L159.568335415077,10.26029609641263L163.54241808033692,21.146054059621378z" style="fill:rgb(237,120,191)"/><path d="M-15.903683575774554,147.42211647156287L-19.721573745031947,17.050891732882945L-21.96827122632007,137.5981913639787zM-6.303838153343428,28.206994541952515L-12.982084558963917,136.21901343172206L-6.99874812007823,146.08497201955066zM-14.247827972459122,147.18951381714325L-18.2322651450852,17.453710343019672L-20.297431156291427,137.35781777805843zM-4.5632118799060075,28.161777272748527L-11.030029216395862,135.83311687924032L-5.064849606236105,145.7084544161927z" style="fill:rgb(247,158,158)"/><path d="M159.568335415077,10.26029609641263L166.9213272643822,12.22328601848673L163.00824217980656,1.311874544087792z" style="fill:rgb(237,120,191)"/><path d="M-12.522732898413471,146.9471995093893L-16.677134740790645,17.767595488233503L-18.556703702731205,137.107404835015z" style="fill:rgb(247,158,158)"/><path d="M168.92434478259088,-26.504906126571402L155.38031286753647,19.253846290131374L159.568335415077,10.26029609641263z" style="fill:rgb(83,212,212)"/><path d="M-2.7911787268484347,28.02383639531436L-9.044101112738575,135.44053739780276L-3.097415052026921,145.32540763089105zM-0.9950670183127145,27.793544207150212L-7.032043561022983,135.04280279446027L-1.1041181967691711,144.937322573484zM0.817659264556382,27.471682524715558L-5.001728466891518,134.64144220619372L0.9072416345016295,144.54573012004252zM-8.891470449201119,146.4371144719578L-13.39452372071074,18.122640882153647L-14.892469867554114,136.58026235114139z" style="fill:rgb(247,158,158)"/><path d="M-79.5402017785399,136.87162069052604L-82.48865495757674,144.30848190822667L-73.02206131055932,146.4504798523716z" style="fill:rgb(73,33,193)"/><path d="M2.6394360741782883,27.05944565003947L-2.9611256691918486,134.23805751572073L2.928769178852674,144.1521546224609zM31.199590424302084,-0.8364856208249976L29.692832981978242,124.41770274000604L35.2584808805251,134.49809405427933z" style="fill:rgb(247,158,158)"/><path d="M168.92434478259088,-26.504906126571402L-79.5402017785399,136.87162069052604L-69.56241397660877,138.38411041472477z" style="fill:rgb(83,212,212)"/><path d="M4.46263500928988,26.558427574667817L-0.9181859480586625,133.72511512177815L4.952047842396177,143.64931830005355zM31.06914865758659,0.5559803159828297L29.49853697945504,124.48738836653436L35.06618240008597,134.56675784429123zM6.279601620121873,25.970623072735677L1.1185552768655447,133.21373451613587L6.969167839924115,143.14801981720098zM30.82474792819887,1.970125929776663L29.175585660639225,124.60320256452884L34.74654547812112,134.6808736396862z" style="fill:rgb(247,158,158)"/><path d="M-82.48865495757674,144.30848190822667L-79.5402017785399,136.87162069052604L-89.06729968357037,134.7658890753552z" style="fill:rgb(73,33,193)"/><path d="M8.082692217821547,25.298421513563316L3.1410296610081754,132.70593203284537L8.972138064462971,142.6502303509995zM30.46697023322498,3.4002675235896467L28.72529013910004,124.7647071818499L34.300867610500035,134.8400103090439zM9.864312659694672,24.544585355553068L5.141203154728266,132.2037295706716L10.95300266987757,142.15793709489427zM29.41602262311919,6.285288267337189L27.450442326988018,125.22192327373344L33.03910224850062,135.29052349983323zM11.616957063645664,23.71225212644955L7.111108556924089,131.70912143503435L12.903873763069532,141.67309478213548zM28.726429462136174,7.728361472836758L26.63105054329481,125.51578795511217L32.228112811322404,135.58008090272727zM13.333241596802704,22.80491072146168L9.042752915075479,131.2076484264904L14.816753291438447,141.1812412847791z" style="fill:rgb(247,158,158)"/><path d="M168.92434478259088,-26.504906126571402L150.45216913580617,28.246947617175266L155.38031286753647,19.253846290131374z" style="fill:rgb(83,212,212)"/><path d="M27.930617191730835,9.163870476231732L25.694600394376824,125.851645592518L31.301264921853463,135.91101671356142zM15.005946481890138,21.82638249969361L10.927689895596004,130.6335609060773L16.682952784259896,140.61676502649965zM27.031569715842792,10.585851363661527L24.644869487607505,126.22811836472772L30.262296503352538,136.28197351475308zM16.62804953942533,20.780807471015116L12.758904016782738,130.07585164784888L18.495951067325137,140.06839689413846zM26.032737842382588,11.988366091356104L23.486096047724722,126.6436998749029L29.11539633368223,136.69146726424808z" style="fill:rgb(247,158,158)"/><path d="M163.54241808033692,21.146054059621378L155.38031286753647,19.253846290131374L159.42258648729995,30.109078584733126z" style="fill:rgb(234,114,195)"/><path d="M23.751795548380485,14.71154392776034L20.860522978457517,127.58535319150991L26.516715461205795,137.6193317871356z" style="fill:rgb(247,158,158)"/><path d="M168.92434478259088,-26.504906126571402L-69.56241397660877,138.38411041472477L-59.17784716923095,139.2850813301307z" style="fill:rgb(83,212,212)"/><path d="M155.38031286753647,19.253846290131374L163.54241808033692,21.146054059621378L159.568335415077,10.26029609641263z" style="fill:rgb(234,114,195)"/><path d="M33.73095106799553,135.04349589314177L25.002518717388508,-5.390627719364542L28.14946539429315,124.97122049843098z" style="fill:rgb(247,158,158)"/><path d="M-69.56241397660877,138.38411041472477L-73.02206131055932,146.4504798523716L-63.11282324561945,148.00226949271575z" style="fill:rgb(79,32,198)"/><path d="M20.2484822454612,139.53831053134132L13.039317969325214,9.503732763634012L14.52905519590026,129.53673192482262zM27.865193489531297,137.13785369141064L19.86532393217734,3.16125295841854L22.22295141000046,127.09672079853523zM21.93350708418629,139.02864193432498L14.556953471522682,8.329825917055576L16.231033598527176,129.0183742555671zM23.54424827643838,138.54143888080077L16.00416326113925,7.103314159784202L17.857989955321205,128.5228620244789z" style="fill:rgb(247,158,158)"/><path d="M168.92434478259088,-26.504906126571402L144.79707530199363,37.19252862620748L150.45216913580617,28.246947617175266z" style="fill:rgb(83,212,212)"/><path d="M25.07421446026236,138.07867244948602L17.374976521764218,5.8294131070542825L19.40336930917979,128.05220022427065z" style="fill:rgb(247,158,158)"/><path d="M-73.02206131055932,146.4504798523716L-69.56241397660877,138.38411041472477L-79.5402017785399,136.87162069052604z" style="fill:rgb(79,32,198)"/><path d="M168.92434478259088,-26.504906126571402L-59.17784716923095,139.2850813301307L-48.43454068456483,139.55969443634405z" style="fill:rgb(83,212,212)"/><path d="M159.42258648729995,30.109078584733126L150.45216913580617,28.246947617175266L154.569709324919,39.06695695572208z" style="fill:rgb(230,108,199)"/><path d="M168.92434478259088,-26.504906126571402L138.4334932880149,46.04240948546338L144.79707530199363,37.19252862620748z" style="fill:rgb(83,212,212)"/><path d="M150.45216913580617,28.246947617175266L159.42258648729995,30.109078584733126L155.38031286753647,19.253846290131374z" style="fill:rgb(230,108,199)"/><path d="M168.92434478259088,-26.504906126571402L-48.43454068456483,139.55969443634405L-37.38435025948017,139.19698964480475z" style="fill:rgb(83,212,212)"/><path d="M-59.17784716923095,139.2850813301307L-63.11282324561945,148.00226949271575L-52.80460731474627,148.94555474546445z" style="fill:rgb(86,32,201)"/><path d="M168.92434478259088,-26.504906126571402L131.38526380766746,54.74772342193029L138.4334932880149,46.04240948546338z" style="fill:rgb(83,212,212)"/><path d="M-63.11282324561945,148.00226949271575L-59.17784716923095,139.2850813301307L-69.56241397660877,138.38411041472477z" style="fill:rgb(86,32,201)"/><path d="M154.569709324919,39.06695695572208L144.79707530199363,37.19252862620748L148.99675168361145,47.97284762431068z" style="fill:rgb(226,102,203)"/><path d="M168.92434478259088,-26.504906126571402L-37.38435025948017,139.19698964480475L-26.082641701472248,138.1900809612788zM168.92434478259088,-26.504906126571402L123.68156713165168,63.2593538161027L131.38526380766746,54.74772342193029z" style="fill:rgb(83,212,212)"/><path d="M144.79707530199363,37.19252862620748L154.569709324919,39.06695695572208L150.45216913580617,28.246947617175266z" style="fill:rgb(226,102,203)"/><path d="M-48.43454068456483,139.55969443634405L-52.80460731474627,148.94555474546445L-42.1450810012546,149.265446323478z" style="fill:rgb(94,32,205)"/><path d="M168.92434478259088,-26.504906126571402L-26.082641701472248,138.1900809612788L-14.587874892370738,136.53643952712682zM168.92434478259088,-26.504906126571402L115.35687107200829,71.5284315109389L123.68156713165168,63.2593538161027z" style="fill:rgb(83,212,212)"/><path d="M-52.80460731474627,148.94555474546445L-48.43454068456483,139.55969443634405L-59.17784716923095,139.2850813301307z" style="fill:rgb(94,32,205)"/><path d="M148.99675168361145,47.97284762431068L138.4334932880149,46.04240948546338L142.7218904052716,56.77884927311232z" style="fill:rgb(222,96,207)"/><path d="M168.92434478259088,-26.504906126571402L-14.587874892370738,136.53643952712682L-2.9611256691918486,134.23805751572073zM168.92434478259088,-26.504906126571402L106.450767834079,79.50683325475127L115.35687107200829,71.5284315109389z" style="fill:rgb(83,212,212)"/><path d="M138.4334932880149,46.04240948546338L148.99675168361145,47.97284762431068L144.79707530199363,37.19252862620748z" style="fill:rgb(222,96,207)"/><path d="M168.92434478259088,-26.504906126571402L-2.9611256691918486,134.23805751572073L8.734452477664895,131.30153428717202z" style="fill:rgb(83,212,212)"/><path d="M-37.38435025948017,139.19698964480475L-42.1450810012546,149.265446323478L-31.185676072582407,148.9508939693303z" style="fill:rgb(101,32,208)"/><path d="M168.92434478259088,-26.504906126571402L97.00768118492168,87.14770169727755L106.450767834079,79.50683325475127zM168.92434478259088,-26.504906126571402L8.734452477664895,131.30153428717202L20.434214143421624,127.7382494739774zM168.92434478259088,-26.504906126571402L87.07657281030609,94.4059415627643L97.00768118492168,87.14770169727755z" style="fill:rgb(83,212,212)"/><path d="M-42.1450810012546,149.265446323478L-37.38435025948017,139.19698964480475L-48.43454068456483,139.55969443634405z" style="fill:rgb(101,32,208)"/><path d="M142.7218904052716,56.77884927311232L131.38526380766746,54.74772342193029L135.7685871933793,65.43641734514559z" style="fill:rgb(217,91,210)"/><path d="M168.92434478259088,-26.504906126571402L20.434214143421624,127.7382494739774L32.07265469037065,123.56419260812511zM168.92434478259088,-26.504906126571402L76.71049724002887,101.23872726532824L87.07657281030609,94.4059415627643zM168.92434478259088,-26.504906126571402L32.07265469037065,123.56419260812511L43.58407472425436,118.80002290863288zM168.92434478259088,-26.504906126571402L65.96613591266771,107.60599069917042L76.71049724002887,101.23872726532824zM168.92434478259088,-26.504906126571402L43.58407472425436,118.80002290863288L54.903255633427435,113.4708544167895zM168.92434478259088,-26.504906126571402L54.903255633427435,113.4708544167895L65.96613591266771,107.60599069917042z" style="fill:rgb(83,212,212)"/><path d="M-26.082641701472248,138.1900809612788L-31.185676072582407,148.9508939693303L-19.981236855748435,147.99488220331307z" style="fill:rgb(108,33,211)"/><path d="M131.38526380766746,54.74772342193029L142.7218904052716,56.77884927311232L138.4334932880149,46.04240948546338z" style="fill:rgb(217,91,210)"/><path d="M135.7685871933793,65.43641734514559L123.68156713165168,63.2593538161027L128.16560121764425,73.89681337644498z" style="fill:rgb(212,85,213)"/><path d="M-31.185676072582407,148.9508939693303L-26.082641701472248,138.1900809612788L-37.38435025948017,139.19698964480475z" style="fill:rgb(108,33,211)"/><path d="M-14.587874892370738,136.53643952712682L-19.981236855748435,147.99488220331307L-8.589620532476747,146.39471009396175z" style="fill:rgb(116,34,214)"/><path d="M123.68156713165168,63.2593538161027L135.7685871933793,65.43641734514559L131.38526380766746,54.74772342193029z" style="fill:rgb(212,85,213)"/><path d="M128.16560121764425,73.89681337644498L115.35687107200829,71.5284315109389L119.94687345440876,82.11156398417695z" style="fill:rgb(206,80,215)"/><path d="M-19.981236855748435,147.99488220331307L-14.587874892370738,136.53643952712682L-26.082641701472248,138.1900809612788z" style="fill:rgb(116,34,214)"/><path d="M-2.9611256691918486,134.23805751572073L-8.589620532476747,146.39471009396175L2.928769178852674,144.1521546224609z" style="fill:rgb(123,36,216)"/><path d="M115.35687107200829,71.5284315109389L128.16560121764425,73.89681337644498L123.68156713165168,63.2593538161027z" style="fill:rgb(206,80,215)"/><path d="M119.94687345440876,82.11156398417695L106.450767834079,79.50683325475127L111.15136659235824,90.03298628160044z" style="fill:rgb(200,75,217)"/><path d="M-8.589620532476747,146.39471009396175L-2.9611256691918486,134.23805751572073L-14.587874892370738,136.53643952712682z" style="fill:rgb(123,36,216)"/><path d="M8.734452477664895,131.30153428717202L2.928769178852674,144.1521546224609L14.511516105249122,141.2735556357184z" style="fill:rgb(131,38,218)"/><path d="M111.15136659235824,90.03298628160044L97.00768118492168,87.14770169727755L101.8228363930088,97.61468423959445z" style="fill:rgb(194,70,219)"/><path d="M106.450767834079,79.50683325475127L119.94687345440876,82.11156398417695L115.35687107200829,71.5284315109389z" style="fill:rgb(200,75,217)"/><path d="M20.434214143421624,127.7382494739774L14.511516105249122,141.2735556357184L26.094771184944058,137.76998985621265z" style="fill:rgb(138,40,220)"/><path d="M97.00768118492168,87.14770169727755L92.00951897559894,104.81204104759257L101.8228363930088,97.61468423959445z" style="fill:rgb(188,65,220)"/><path d="M2.928769178852674,144.1521546224609L8.734452477664895,131.30153428717202L-2.9611256691918486,134.23805751572073z" style="fill:rgb(131,38,218)"/><path d="M32.07265469037065,123.56419260812511L26.094771184944058,137.76998985621265L37.61387118646358,133.65710334162193z" style="fill:rgb(146,43,221)"/><path d="M97.00768118492168,87.14770169727755L111.15136659235824,90.03298628160044L106.450767834079,79.50683325475127z" style="fill:rgb(194,70,219)"/><path d="M87.07657281030609,94.4059415627643L81.7636684347014,111.582711752153L92.00951897559894,104.81204104759257z" style="fill:rgb(181,61,221)"/><path d="M43.58407472425436,118.80002290863288L37.61387118646358,133.65710334162193L49.003986574697834,128.95517306315793z" style="fill:rgb(153,46,222)"/><path d="M14.511516105249122,141.2735556357184L20.434214143421624,127.7382494739774L8.734452477664895,131.30153428717202z" style="fill:rgb(138,40,220)"/><path d="M76.71049724002887,101.23872726532824L71.14113388081604,117.88712925166794L81.7636684347014,111.582711752153z" style="fill:rgb(175,57,222)"/><path d="M54.903255633427435,113.4708544167895L49.003986574697834,128.95517306315793L60.20079035570198,123.68889730792174z" style="fill:rgb(160,49,222)"/><path d="M65.96613591266771,107.60599069917042L60.20079035570198,123.68889730792174L71.14113388081604,117.88712925166794z" style="fill:rgb(168,53,222)"/><path d="M92.00951897559894,104.81204104759257L97.00768118492168,87.14770169727755L87.07657281030609,94.4059415627643z" style="fill:rgb(188,65,220)"/><path d="M26.094771184944058,137.76998985621265L32.07265469037065,123.56419260812511L20.434214143421624,127.7382494739774z" style="fill:rgb(146,43,221)"/><path d="M81.7636684347014,111.582711752153L87.07657281030609,94.4059415627643L76.71049724002887,101.23872726532824z" style="fill:rgb(181,61,221)"/><path d="M37.61387118646358,133.65710334162193L43.58407472425436,118.80002290863288L32.07265469037065,123.56419260812511z" style="fill:rgb(153,46,222)"/><path d="M71.14113388081604,117.88712925166794L76.71049724002887,101.23872726532824L65.96613591266771,107.60599069917042z" style="fill:rgb(175,57,222)"/><path d="M49.003986574697834,128.95517306315793L54.903255633427435,113.4708544167895L43.58407472425436,118.80002290863288z" style="fill:rgb(160,49,222)"/><path d="M60.20079035570198,123.68889730792174L65.96613591266771,107.60599069917042L54.903255633427435,113.4708544167895z" style="fill:rgb(168,53,222)"/></svg>
